<?xml version="1.0" encoding="iso-8859-1"?>
<!-- Generator: Adobe Illustrator 19.0.0, SVG Export Plug-In . SVG Version: 6.00 Build 0)  -->
<svg version="1.1" id="Capa_1" xmlns="http://www.w3.org/2000/svg" xmlns:xlink="http://www.w3.org/1999/xlink" x="0px" y="0px"
	 viewBox="0 0 512 512" style="enable-background:new 0 0 512 512;" xml:space="preserve">
<path style="fill:#E5E5E5;" d="M170.106,265.089L0,273.311L1.011,83.577C1.1,67.431,14.215,54.389,30.361,54.389h26.425
	c23.181,0,43.848,14.604,51.59,36.454L170.106,265.089z"/>
<path style="opacity:0.05;enable-background:new    ;" d="M170.106,265.089L0,273.311L1.011,83.577
	C1.1,67.431,14.215,54.389,30.361,54.389h26.425c23.181,0,43.848,14.604,51.59,36.454L170.106,265.089z"/>
<path style="fill:#69BFE2;" d="M108.376,90.844c-7.741-21.851-28.408-36.454-51.59-36.454H30.361
	C14.215,54.39,1.1,67.432,1.01,83.578l-0.45,80.776l113.953-56.182L108.376,90.844z"/>
<path id="SVGCleanerId_0" style="fill:#E5E5E5;" d="M451.325,225.379c-2.047-0.806-3.786-2.258-4.934-4.134
	c-37.53-61.324-140.909-86.851-227.354-86.851C111.27,134.394,0,196.589,0,273.311s111.27,122.473,219.038,122.473
	c123.65,0,292.962-3.39,292.962-97.772C512,262.433,487.931,239.79,451.325,225.379z"/>
<g>
	<path id="SVGCleanerId_0_1_" style="fill:#E5E5E5;" d="M451.325,225.379c-2.047-0.806-3.786-2.258-4.934-4.134
		c-37.53-61.324-140.909-86.851-227.354-86.851C111.27,134.394,0,196.589,0,273.311s111.27,122.473,219.038,122.473
		c123.65,0,292.962-3.39,292.962-97.772C512,262.433,487.931,239.79,451.325,225.379z"/>
</g>
<path style="fill:#69BFE2;" d="M376.358,164.77h-76.742c-9.389,0-17,7.611-17,16.999v20.93c0,9.389,7.611,17,17,17H445.43
	C430.522,196.268,405.914,178.155,376.358,164.77z"/>
<rect x="332.33" y="164.77" style="opacity:0.1;enable-background:new    ;" width="15" height="54.93"/>
<path style="fill:#445258;" d="M474.035,236.443c-20.622,12.743-34.37,35.547-34.37,61.569s13.747,48.826,34.369,61.569
	C497.55,345.358,512,325.568,512,298.012S497.551,250.667,474.035,236.443z"/>
<path style="opacity:0.1;enable-background:new    ;" d="M481.909,241.662c3.082,7.615,4.727,16.028,4.727,25.326
	c0,94.382-169.313,97.772-292.962,97.772c-70.987,0-143.486-19.854-184.71-55.332c28.498,54.738,120.491,86.356,210.074,86.356
	c123.65,0,292.962-3.39,292.962-97.772C512,273.678,500.737,255.399,481.909,241.662z"/>
<path style="fill:#69BFE2;" d="M215.272,432.152h-49.071c-18.465,0-33.435-14.969-33.435-33.435l0,0
	c0-18.465,14.969-33.435,33.435-33.435h49.071c18.465,0,33.435,14.969,33.435,33.435l0,0
	C248.707,417.183,233.738,432.152,215.272,432.152z"/>
<path style="opacity:0.1;enable-background:new    ;" d="M248.286,393.429c-2.536,15.952-16.349,28.146-33.014,28.146h-14.655
	l37.606-47.158c-5.989-5.658-14.062-9.134-22.951-9.134h-49.071c-18.466,0-33.435,14.969-33.435,33.435
	c0,18.465,14.969,33.435,33.435,33.435h49.071c18.465,0,33.435-14.969,33.435-33.435
	C248.707,396.917,248.56,395.152,248.286,393.429z"/>
<path style="fill:#E5E5E5;" d="M109.136,457.611h-26.82c-16.987,0-28.891-16.769-23.288-32.805l34.4-98.453
	c6.583-18.84,24.359-31.459,44.316-31.459h94.941c19.333,0,30.097,22.349,18.043,37.465L176.851,425
	C160.417,445.608,135.494,457.611,109.136,457.611z"/>
<path style="opacity:0.05;enable-background:new    ;" d="M109.136,457.611h-26.82c-16.987,0-28.891-16.769-23.288-32.805
	l34.4-98.453c6.583-18.84,24.359-31.459,44.316-31.459h94.941c19.333,0,30.097,22.349,18.043,37.465L176.851,425
	C160.417,445.608,135.494,457.611,109.136,457.611z"/>
<g>
	<path style="fill:#69BFE2;" d="M137.744,294.894c-19.957,0-37.733,12.619-44.316,31.459l-34.4,98.453
		c-5.351,15.313,5.266,31.283,21.026,32.693l66.732-162.605L137.744,294.894L137.744,294.894z"/>
	<path style="fill:#69BFE2;" d="M228.671,243.796h-18.602c-5.753,0-10.416-4.664-10.416-10.416v-30.729
		c0-5.753,4.664-10.417,10.416-10.417h18.602c5.753,0,10.417,4.664,10.417,10.417v30.729
		C239.087,239.132,234.423,243.796,228.671,243.796z"/>
	<path style="fill:#69BFE2;" d="M148.228,243.796h-18.602c-5.753,0-10.416-4.664-10.416-10.416v-30.729
		c0-5.753,4.664-10.417,10.416-10.417h18.602c5.753,0,10.417,4.664,10.417,10.417v30.729
		C158.645,239.132,153.981,243.796,148.228,243.796z"/>
</g>
<g>
</g>
<g>
</g>
<g>
</g>
<g>
</g>
<g>
</g>
<g>
</g>
<g>
</g>
<g>
</g>
<g>
</g>
<g>
</g>
<g>
</g>
<g>
</g>
<g>
</g>
<g>
</g>
<g>
</g>
</svg>
