<svg viewBox="-17 1 511 511.99998" xmlns="http://www.w3.org/2000/svg"><path d="m465.84375 381.589844c-19.582031 33.917968-61.847656 51.035156-119.007812 48.195312-53.378907-2.648437-114.546876-22.449218-172.230469-55.753906-57.6875-33.304688-105.417969-76.375-134.402344-121.277344-31.039063-48.085937-37.347656-93.246094-17.761719-127.164062 19.582032-33.917969 61.847656-51.035156 119.007813-48.199219 53.378906 2.652344 114.546875 22.453125 172.230469 55.757813 57.683593 33.304687 105.414062 76.375 134.398437 121.277343 31.039063 48.082031 37.347656 93.246094 17.765625 127.164063zm-415.855469-240.097656c-13.125 22.734374-6.949219 56.996093 16.941407 94.011718 26.296874 40.738282 70.183593 80.152344 123.578124 110.980469 53.398438 30.828125 109.472657 49.128906 157.902344 51.53125 44 2.183594 76.761719-9.597656 89.886719-32.332031 13.125-22.730469 6.949219-56.996094-16.941406-94.007813-26.296875-40.738281-70.1875-80.152343-123.582031-110.980469-53.394532-30.828124-109.46875-49.128906-157.902344-51.535156-43.996094-2.183594-76.761719 9.601563-89.882813 32.332032zm0 0" fill="#66d3d0"/><path d="m40.207031 254.425781c28.980469-44.902343 76.710938-87.972656 134.398438-121.277343 57.683593-33.304688 118.851562-53.109376 172.230469-55.757813 57.160156-2.835937 99.425781 14.277344 119.007812 48.199219 19.585938 33.917968 13.273438 79.078125-17.765625 127.160156-28.984375 44.90625-76.714844 87.976562-134.398437 121.28125-57.683594 33.304688-118.851563 53.105469-172.230469 55.753906-57.160157 2.839844-99.425781-14.277344-119.007813-48.195312-19.585937-33.917969-13.277344-79.082032 17.765625-127.164063zm308.203125-145.265625c-48.429687 2.40625-104.507812 20.707032-157.902344 51.535156-53.390624 30.824219-97.28125 70.238282-123.578124 110.980469-23.890626 37.011719-30.066407 71.277344-16.941407 94.007813 13.121094 22.734375 45.886719 34.515625 89.882813 32.332031 48.433594-2.402344 104.507812-20.707031 157.902344-51.53125 53.394531-30.828125 97.285156-70.242187 123.582031-110.984375 23.890625-37.011719 30.066406-71.277344 16.941406-94.007812-13.125-22.730469-45.886719-34.515626-89.886719-32.332032zm0 0" fill="#7de2e2"/><path d="m243.566406 512c-39.164062 0-75.121094-28.042969-101.242187-78.96875-24.394531-47.550781-37.828125-110.421875-37.828125-177.03125s13.433594-129.480469 37.828125-177.03125c26.121093-50.925781 62.078125-78.96875 101.242187-78.96875 39.167969 0 75.125 28.042969 101.246094 78.96875 24.394531 47.550781 37.828125 110.421875 37.828125 177.03125s-13.433594 129.480469-37.828125 177.03125c-26.121094 50.925781-62.078125 78.96875-101.246094 78.96875zm0-480.191406c-26.246094 0-52.832031 22.480468-72.941406 61.675781-22.132812 43.144531-34.324219 100.859375-34.324219 162.515625s12.191407 119.371094 34.324219 162.515625c20.109375 39.195313 46.695312 61.675781 72.941406 61.675781 26.25 0 52.835938-22.480468 72.945313-61.675781 22.132812-43.144531 34.320312-100.859375 34.320312-162.515625s-12.1875-119.371094-34.320312-162.515625c-20.109375-39.195313-46.695313-61.675781-72.945313-61.675781zm0 0" fill="#a0f0f2"/><path d="m308.679688 256c0 35.960938-29.152344 65.113281-65.113282 65.113281-35.957031 0-65.109375-29.152343-65.109375-65.113281s29.152344-65.113281 65.109375-65.113281c35.960938 0 65.113282 29.152343 65.113282 65.113281zm0 0" fill="#ff929f"/><path d="m238.582031 256c0-25.113281 14.246094-46.898438 35.070313-57.761719-8.996094-4.691406-19.238282-7.351562-30.085938-7.351562-35.957031 0-65.109375 29.152343-65.109375 65.113281s29.152344 65.113281 65.109375 65.113281c10.847656 0 21.089844-2.660156 30.085938-7.351562-20.824219-10.863281-35.070313-32.648438-35.070313-57.761719zm0 0" fill="#ff737d"/><path d="m449.726562 106.859375c0 13.757813-11.152343 24.910156-24.910156 24.910156-13.757812 0-24.910156-11.152343-24.910156-24.910156s11.152344-24.910156 24.910156-24.910156c13.757813 0 24.910156 11.152343 24.910156 24.910156zm0 0" fill="#6392d6"/><path d="m50.320312 165.640625c0 13.753906-11.152343 24.90625-24.910156 24.90625-13.757812 0-24.910156-11.152344-24.910156-24.90625 0-13.757813 11.152344-24.910156 24.910156-24.910156 13.757813 0 24.910156 11.152343 24.910156 24.910156zm0 0" fill="#4f7cbf"/><path d="m213.476562 473.847656c0 13.757813-11.152343 24.910156-24.910156 24.910156-13.757812 0-24.910156-11.152343-24.910156-24.910156 0-13.757812 11.152344-24.910156 24.910156-24.910156 13.757813 0 24.910156 11.152344 24.910156 24.910156zm0 0" fill="#78a3ef"/></svg>