<?xml version="1.0" encoding="iso-8859-1"?>
<!-- Generator: Adobe Illustrator 19.0.0, SVG Export Plug-In . SVG Version: 6.00 Build 0)  -->
<svg version="1.1" id="Capa_1" xmlns="http://www.w3.org/2000/svg" xmlns:xlink="http://www.w3.org/1999/xlink" x="0px" y="0px"
	 height="512" width="512" viewBox="0 0 512 512" style="enable-background:new 0 0 512 512;" xml:space="preserve">
<g>
	<path style="fill:#445258;" d="M84.839,421.997C38.059,421.997,0,383.94,0,337.16s38.059-84.838,84.839-84.838
		s84.838,38.058,84.838,84.838S131.619,421.997,84.839,421.997z M84.839,286.044c-28.186,0-51.116,22.931-51.116,51.115
		s22.931,51.115,51.116,51.115s51.115-22.931,51.115-51.115S113.023,286.044,84.839,286.044z"/>
	<path style="fill:#445258;" d="M427.162,421.997c-46.78,0-84.839-38.058-84.839-84.838s38.059-84.838,84.839-84.838
		S512,290.379,512,337.16S473.942,421.997,427.162,421.997z M427.162,286.044c-28.186,0-51.116,22.931-51.116,51.115
		s22.931,51.115,51.116,51.115c28.184,0,51.115-22.931,51.115-51.115S455.347,286.044,427.162,286.044z"/>
</g>
<path style="fill:#D674B6;" d="M84.836,348.401c-3.922,0-7.614-2.056-9.659-5.496c-2.329-3.918-2.062-8.855,0.677-12.499
	l97.882-130.213c2.299-3.058,5.994-4.743,9.812-4.456c3.817,0.281,7.228,2.484,9.053,5.848l58.18,107.179
	c1.751,3.226,1.817,7.105,0.176,10.388s-4.783,5.559-8.414,6.095L86.48,348.28C85.93,348.361,85.381,348.401,84.836,348.401z
	 M181.191,227.69l-70.927,94.355l113.086-16.691L181.191,227.69z"/>
<path style="opacity:0.1;enable-background:new    ;" d="M183.548,195.736c-3.818-0.288-7.513,1.397-9.812,4.456l-14.777,19.657
	l11.793,21.726l10.438-13.886l9.177,16.906v-45.86C188.522,197.016,186.135,195.927,183.548,195.736z"/>
<path style="fill:#D674B6;" d="M240.902,325.367c-0.733,0-1.47-0.071-2.2-0.217c-3.273-0.653-6.087-2.728-7.68-5.661l-58.18-107.179
	c-1.848-3.405-1.812-7.522,0.094-10.894c1.907-3.373,5.415-5.526,9.286-5.698l201.986-8.977c4.866-0.227,9.294,2.708,11.013,7.249
	c1.719,4.541,0.328,9.673-3.45,12.725L247.964,322.87C245.948,324.499,243.449,325.367,240.902,325.367z M201.174,217.378
	l43.167,79.52l106.694-86.182L201.174,217.378z"/>
<polygon style="opacity:0.1;enable-background:new    ;" points="380.014,186.926 356.824,187.956 368.322,225.653 387.18,210.421
	"/>
<g>
	<path style="fill:#D674B6;" d="M427.158,348.404c-4.815,0-9.269-3.12-10.748-7.965l-55.178-180.907
		c-4.099-13.44-15.129-23.845-28.784-27.155l-33.58-8.14c-6.034-1.462-9.739-7.539-8.277-13.573
		c1.463-6.034,7.544-9.737,13.572-8.277l33.58,8.14c21.344,5.174,38.585,21.438,44.992,42.445l55.179,180.908
		c1.81,5.938-1.535,12.22-7.473,14.031C429.349,348.245,428.245,348.404,427.158,348.404z"/>
	<path style="fill:#D674B6;" d="M182.725,218.191c-4.457,0-8.674-2.669-10.435-7.059l-12.272-30.582
		c-2.313-5.761,0.484-12.306,6.246-14.617c5.758-2.313,12.306,0.483,14.617,6.246l12.272,30.582
		c2.313,5.761-0.484,12.306-6.246,14.618C185.535,217.929,184.118,218.191,182.725,218.191z"/>
</g>
<path style="opacity:0.1;enable-background:new    ;" d="M180.882,172.179c-2.312-5.763-8.86-8.559-14.618-6.246
	c-5.762,2.312-8.559,8.857-6.246,14.618l2.636,6.57l23.235-2.462L180.882,172.179z"/>
<circle style="fill:#E5E5E5;" cx="301.51" cy="113.311" r="23.308"/>
<path style="fill:#445258;" d="M202.243,172.764l-71.665,7.595c-7.555,0.801-14.138-5.122-14.138-12.719v-10.08
	c0-7.303,6.104-13.123,13.399-12.776l71.692,3.413c6.572,0.313,11.739,5.732,11.739,12.311l0,0
	C213.269,166.812,208.512,172.1,202.243,172.764z"/>
<circle style="fill:#E5E5E5;" cx="240.9" cy="314.121" r="30.41"/>
<g>
</g>
<g>
</g>
<g>
</g>
<g>
</g>
<g>
</g>
<g>
</g>
<g>
</g>
<g>
</g>
<g>
</g>
<g>
</g>
<g>
</g>
<g>
</g>
<g>
</g>
<g>
</g>
<g>
</g>
</svg>
