<?xml version="1.0" encoding="iso-8859-1"?>
<!-- Generator: Adobe Illustrator 19.0.0, SVG Export Plug-In . SVG Version: 6.00 Build 0)  -->
<svg version="1.1" id="Layer_1" xmlns="http://www.w3.org/2000/svg" xmlns:xlink="http://www.w3.org/1999/xlink" x="0px" y="0px"
	 viewBox="0 0 512 512" style="enable-background:new 0 0 512 512;" xml:space="preserve">
<path style="fill:#FFFFAE;" d="M478.609,512H33.391c-6.147,0-11.13-4.983-11.13-11.13V66.783c0-24.588,19.933-44.522,44.522-44.522
	h378.435c24.588,0,44.522,19.933,44.522,44.522V500.87C489.739,507.017,484.756,512,478.609,512z"/>
<path style="fill:#C5D57B;" d="M489.739,512H22.261v-66.783h467.478V512z"/>
<path style="fill:#9FBA41;" d="M219.826,381.217v122.435c0,4.61-3.738,8.348-8.348,8.348c-4.61,0-8.348-3.738-8.348-8.348V381.217
	c0-4.61,3.738-8.348,8.348-8.348C216.088,372.87,219.826,376.607,219.826,381.217z M89.043,317.217c-4.61,0-8.348,3.738-8.348,8.348
	v178.087c0,4.61,3.738,8.348,8.348,8.348c4.61,0,8.348-3.738,8.348-8.348V325.565C97.391,320.955,93.654,317.217,89.043,317.217z
	 M19.478,417.391c-4.61,0-8.348,3.738-8.348,8.348v77.913c0,4.61,3.738,8.348,8.348,8.348s8.348-3.738,8.348-8.348v-77.913
	C27.826,421.129,24.088,417.391,19.478,417.391z M125.217,439.652c-4.61,0-8.348,3.738-8.348,8.348v55.652
	c0,4.61,3.738,8.348,8.348,8.348s8.348-3.738,8.348-8.348V448C133.565,443.39,129.828,439.652,125.217,439.652z M311.652,261.565
	c-4.61,0-8.348,3.738-8.348,8.348v233.739c0,4.61,3.738,8.348,8.348,8.348s8.348-3.738,8.348-8.348V269.913
	C320,265.303,316.262,261.565,311.652,261.565z M445.217,395.13c-4.61,0-8.348,3.738-8.348,8.348v100.174
	c0,4.61,3.738,8.348,8.348,8.348s8.348-3.738,8.348-8.348V403.478C453.565,398.868,449.828,395.13,445.217,395.13z M492.522,439.652
	c-4.61,0-8.348,3.738-8.348,8.348v55.652c0,4.61,3.738,8.348,8.348,8.348c4.61,0,8.348-3.738,8.348-8.348V448
	C500.87,443.39,497.132,439.652,492.522,439.652z M358.957,417.391c-4.61,0-8.348,3.738-8.348,8.348v77.913
	c0,4.61,3.738,8.348,8.348,8.348s8.348-3.738,8.348-8.348v-77.913C367.304,421.129,363.567,417.391,358.957,417.391z"/>
<path style="fill:#7F932A;" d="M512,503.652c0,4.61-3.738,8.348-8.348,8.348H8.348C3.738,512,0,508.262,0,503.652
	s3.738-8.348,8.348-8.348h495.304C508.262,495.304,512,499.042,512,503.652z"/>
<path style="fill:#C7FAFF;" d="M512,345.043c0,36.883-29.9,66.783-66.783,66.783s-66.783-29.9-66.783-66.783
	s29.9-66.783,66.783-66.783S512,308.161,512,345.043z"/>
<path style="fill:#FFED8F;" d="M400.696,189.217c0,49.178-39.866,89.043-89.043,89.043s-89.043-39.866-89.043-89.043
	s39.866-89.043,89.043-89.043S400.696,140.04,400.696,189.217z"/>
<path style="fill:#FFCD69;" d="M345.043,189.217c0,18.442-14.949,33.391-33.391,33.391s-33.391-14.949-33.391-33.391
	s14.949-33.391,33.391-33.391S345.043,170.775,345.043,189.217z M211.478,322.783c-18.442,0-33.391,14.949-33.391,33.391
	s14.949,33.391,33.391,33.391s33.391-14.949,33.391-33.391S229.92,322.783,211.478,322.783z M211.478,89.043
	c12.295,0,22.261-9.966,22.261-22.261s-9.966-22.261-22.261-22.261c-12.295,0-22.261,9.966-22.261,22.261
	S199.184,89.043,211.478,89.043z"/>
<path style="fill:#EDACA9;" d="M0,111.304C0,99.01,9.966,89.043,22.261,89.043s22.261,9.966,22.261,22.261
	s-9.966,22.261-22.261,22.261S0,123.599,0,111.304z M105.739,77.913c21.515,0,38.957-17.441,38.957-38.957S127.254,0,105.739,0
	S66.783,17.441,66.783,38.957S84.224,77.913,105.739,77.913z M89.043,155.826C39.866,155.826,0,195.692,0,244.87
	s39.866,89.043,89.043,89.043s89.043-39.866,89.043-89.043S138.221,155.826,89.043,155.826z"/>
<path style="fill:#DE9892;" d="M122.435,244.87c0,18.442-14.949,33.391-33.391,33.391s-33.391-14.949-33.391-33.391
	s14.949-33.391,33.391-33.391S122.435,226.428,122.435,244.87z"/>
<path style="fill:#FFCD69;" d="M175.304,130.783v1.113c0,4.61-3.738,8.348-8.348,8.348s-8.348-3.738-8.348-8.348v-1.113
	c0-4.61,3.738-8.348,8.348-8.348S175.304,126.172,175.304,130.783z M267.13,0c-4.61,0-8.348,3.738-8.348,8.348v1.113
	c0,4.61,3.738,8.348,8.348,8.348s8.348-3.738,8.348-8.348V8.348C275.478,3.738,271.741,0,267.13,0z M345.043,33.391
	c-4.61,0-8.348,3.738-8.348,8.348v1.113c0,4.61,3.738,8.348,8.348,8.348s8.348-3.738,8.348-8.348v-1.113
	C353.391,37.129,349.654,33.391,345.043,33.391z"/>
<path style="fill:#91C1A4;" d="M498.087,257.67v1.113c0,4.61-3.738,8.348-8.348,8.348s-8.348-3.738-8.348-8.348v-1.113
	c0-4.61,3.738-8.348,8.348-8.348S498.087,253.059,498.087,257.67z M445.217,221.496c-4.61,0-8.348,3.738-8.348,8.348v1.113
	c0,4.61,3.738,8.348,8.348,8.348s8.348-3.738,8.348-8.348v-1.113C453.565,225.233,449.828,221.496,445.217,221.496z
	 M489.739,143.583c-4.61,0-8.348,3.738-8.348,8.348v1.113c0,4.61,3.738,8.348,8.348,8.348s8.348-3.738,8.348-8.348v-1.113
	C498.087,147.32,494.349,143.583,489.739,143.583z M456.348,77.913c-4.61,0-8.348,3.738-8.348,8.348v1.113
	c0,4.61,3.738,8.348,8.348,8.348s8.348-3.738,8.348-8.348v-1.113C464.696,81.651,460.958,77.913,456.348,77.913z M486.957,9.461
	V8.348c0-4.61-3.738-8.348-8.348-8.348s-8.348,3.738-8.348,8.348v1.113c0,4.61,3.738,8.348,8.348,8.348
	S486.957,14.071,486.957,9.461z"/>
<path style="fill:#B0E6FF;" d="M419.896,338.365v1.113c0,4.61-3.738,8.348-8.348,8.348c-4.61,0-8.348-3.738-8.348-8.348v-1.113
	c0-4.61,3.738-8.348,8.348-8.348C416.158,330.017,419.896,333.755,419.896,338.365z M411.548,357.287
	c-4.61,0-8.348,3.738-8.348,8.348v1.113c0,4.61,3.738,8.348,8.348,8.348c4.61,0,8.348-3.738,8.348-8.348v-1.113
	C419.896,361.025,416.158,357.287,411.548,357.287z M438.261,339.478c-4.61,0-8.348,3.738-8.348,8.348v1.113
	c0,4.61,3.738,8.348,8.348,8.348c4.61,0,8.348-3.738,8.348-8.348v-1.113C446.609,343.216,442.871,339.478,438.261,339.478z
	 M438.261,303.304c-4.61,0-8.348,3.738-8.348,8.348v1.113c0,4.61,3.738,8.348,8.348,8.348c4.61,0,8.348-3.738,8.348-8.348v-1.113
	C446.609,307.042,442.871,303.304,438.261,303.304z M438.261,370.643c-4.61,0-8.348,3.738-8.348,8.348v1.113
	c0,4.61,3.738,8.348,8.348,8.348c4.61,0,8.348-3.738,8.348-8.348v-1.113C446.609,374.381,442.871,370.643,438.261,370.643z"/>
<g>
</g>
<g>
</g>
<g>
</g>
<g>
</g>
<g>
</g>
<g>
</g>
<g>
</g>
<g>
</g>
<g>
</g>
<g>
</g>
<g>
</g>
<g>
</g>
<g>
</g>
<g>
</g>
<g>
</g>
</svg>
