<?xml version="1.0" encoding="iso-8859-1"?>
<!-- Generator: Adobe Illustrator 19.0.0, SVG Export Plug-In . SVG Version: 6.00 Build 0)  -->
<svg version="1.1" id="Capa_1" xmlns="http://www.w3.org/2000/svg" xmlns:xlink="http://www.w3.org/1999/xlink" x="0px" y="0px"
	 viewBox="0 0 512.001 512.001" style="enable-background:new 0 0 512.001 512.001;" xml:space="preserve">
<g>
	<path style="fill:#4A5058;" d="M39.718,11.338L23.566,57.313c-3.078,8.762,3.74,17.855,13.012,17.312
		c42.92-2.513,101.382,22.698,111.896,52.413C151.06,100.501,132.67,20.424,60.337,0.616C51.697-1.75,42.687,2.887,39.718,11.338z"
		/>
	<path style="fill:#4A5058;" d="M472.282,11.338l16.152,45.974c3.078,8.762-3.74,17.855-13.012,17.312
		c-42.92-2.513-101.382,22.698-111.896,52.413C360.94,100.501,379.33,20.424,451.663,0.616
		C460.303-1.75,469.313,2.887,472.282,11.338z"/>
</g>
<path style="fill:#B86EA3;" d="M154.733,512h-25.578c-4.113,0-7.448-3.334-7.448-7.448v-19.578c0-31.784,17.526-60.622,45.738-75.26
	l15.21,29.314c-17.223,8.937-27.923,26.542-27.923,45.945L154.733,512L154.733,512z"/>
<path style="fill:#FFD4B8;" d="M121.707,484.974v19.578c0,4.113,3.335,7.448,7.448,7.448h25.578v-27.026H121.707z"/>
<path style="fill:#B86EA3;" d="M357.267,512h25.578c4.113,0,7.448-3.334,7.448-7.448v-19.578c0-31.784-17.526-60.622-45.738-75.26
	l-15.21,29.314c17.223,8.937,27.923,26.542,27.923,45.945V512H357.267z"/>
<path style="fill:#FFD4B8;" d="M390.293,484.974v19.578c0,4.113-3.335,7.448-7.448,7.448h-25.578v-27.026H390.293z"/>
<path style="fill:#DF85C6;" d="M256,342.785L256,342.785c-56.045,0-101.478,45.433-101.478,101.478V512h202.956v-67.737
	C357.478,388.218,312.045,342.785,256,342.785z"/>
<g>
	<path style="opacity:0.3;fill:#FFFFFF;enable-background:new    ;" d="M182.656,375.902c-0.567,0-1.129,0.021-1.691,0.043
		c-16.427,18.031-26.443,42.005-26.443,68.318v8.282c7.585,6.443,17.402,10.338,28.134,10.338c24.019,0,43.491-19.471,43.491-43.49
		C226.146,395.373,206.675,375.902,182.656,375.902z"/>
	<path style="opacity:0.3;fill:#FFFFFF;enable-background:new    ;" d="M329.344,441.484c-24.019,0-43.491,19.471-43.491,43.491
		c0,10.217,3.532,19.603,9.43,27.026h62.195v-60.178C349.893,445.379,340.076,441.484,329.344,441.484z"/>
</g>
<path style="opacity:0.1;enable-background:new    ;" d="M256,342.785L256,342.785c-38.101,0-71.291,21.001-88.642,52.056
	c25.894,15.583,56.219,24.551,88.642,24.551s62.749-8.969,88.642-24.552C327.291,363.786,294.101,342.785,256,342.785z"/>
<g>
	<circle style="fill:#FFD4B8;" cx="83.83" cy="227.71" r="32.12"/>
	<circle style="fill:#FFD4B8;" cx="428.17" cy="227.71" r="32.12"/>
	<circle style="fill:#FFD4B8;" cx="256" cy="227.49" r="172.16"/>
</g>
<path style="fill:#4A5058;" d="M256,55.322c-79.21,0-145.915,53.496-165.984,126.326c35.685,15.273,119.679,10.156,165.984-58.307
	c45.096,66.674,129.063,73.27,166.297,59.463C402.618,109.384,335.628,55.322,256,55.322z"/>
<path style="opacity:0.1;fill:#513130;enable-background:new    ;" d="M281.514,377.918c-95.084,0-172.165-77.081-172.165-172.165
	c0-46.473,18.421-88.639,48.35-119.614c-44.644,31.106-73.865,82.81-73.865,141.347c0,95.084,77.081,172.165,172.165,172.165
	c48.611,0,92.509-20.153,123.815-52.551C351.942,366.521,318.062,377.918,281.514,377.918z"/>
<g>
	<path style="fill:#4A5058;" d="M256,281.068c-8.724,0-17.152-3.656-23.126-10.031c-2.832-3.023-2.677-7.769,0.346-10.601
		c3.023-2.833,7.77-2.677,10.602,0.345c3.193,3.41,7.519,5.287,12.179,5.287c4.66,0,8.985-1.878,12.179-5.287
		c2.832-3.021,7.577-3.179,10.602-0.345c3.022,2.832,3.178,7.578,0.346,10.601C273.152,277.412,264.724,281.068,256,281.068z"/>
	<path style="fill:#4A5058;" d="M186.515,234.784c-4.143,0-7.5-3.358-7.5-7.5c0-4.169-3.392-7.561-7.561-7.561
		s-7.561,3.392-7.561,7.561c0,4.142-3.357,7.5-7.5,7.5s-7.5-3.358-7.5-7.5c0-12.44,10.121-22.561,22.561-22.561
		s22.561,10.121,22.561,22.561C194.015,231.426,190.657,234.784,186.515,234.784z"/>
	<path style="fill:#4A5058;" d="M355.607,234.784c-4.143,0-7.5-3.358-7.5-7.5c0-4.169-3.392-7.561-7.561-7.561
		c-4.17,0-7.561,3.392-7.561,7.561c0,4.142-3.358,7.5-7.5,7.5c-4.143,0-7.5-3.358-7.5-7.5c0-12.44,10.121-22.561,22.561-22.561
		c12.439,0,22.561,10.121,22.561,22.561C363.107,231.426,359.75,234.784,355.607,234.784z"/>
</g>
<g>
	<path style="fill:#81D4AE;" d="M165.458,96.548l-28.565,28.565c-7.995,7.994-20.956,7.994-28.951,0l0,0
		c-7.994-7.994-7.994-20.956,0-28.951l28.565-28.565c7.995-7.995,20.956-7.995,28.951,0l0,0
		C173.452,75.591,173.452,88.553,165.458,96.548z"/>
	<path style="fill:#81D4AE;" d="M346.543,96.548l28.565,28.565c7.994,7.994,20.956,7.994,28.951,0l0,0
		c7.995-7.994,7.995-20.956,0-28.951l-28.565-28.565c-7.994-7.995-20.956-7.995-28.951,0l0,0
		C338.548,75.591,338.548,88.553,346.543,96.548z"/>
</g>
<g>
</g>
<g>
</g>
<g>
</g>
<g>
</g>
<g>
</g>
<g>
</g>
<g>
</g>
<g>
</g>
<g>
</g>
<g>
</g>
<g>
</g>
<g>
</g>
<g>
</g>
<g>
</g>
<g>
</g>
</svg>
