<?xml version="1.0" encoding="iso-8859-1"?>
<!-- Generator: Adobe Illustrator 19.0.0, SVG Export Plug-In . SVG Version: 6.00 Build 0)  -->
<svg version="1.1" id="Capa_1" xmlns="http://www.w3.org/2000/svg" xmlns:xlink="http://www.w3.org/1999/xlink" x="0px" y="0px"
	 viewBox="0 0 512.001 512.001" style="enable-background:new 0 0 512.001 512.001;" xml:space="preserve">
<path style="fill:#E978A0;" d="M278.867,183.374c-30.23-72.983-113.726-111.06-146.965-123.687
	c-7.938-3.015-16.84,0.672-20.321,8.417c-14.575,32.432-46.691,118.397-16.46,191.379C133.232,351.492,256,388.024,256,388.024
	S316.978,275.382,278.867,183.374z"/>
<path style="opacity:0.1;enable-background:new    ;" d="M278.867,183.374c-19.112-46.141-59.513-78.325-95.046-98.952
	c-11.458,18.091-21.703,38.695-27.948,60.952c-20.331-11.422-42.35-18.771-63.411-23.456
	c-10.605,39.764-16.516,91.275,2.659,137.567c23.545,56.842,79.393,92.503,118.651,111.465c21.229,0.614,35.193-0.833,35.193-0.833
	s10.46-8.497,24.591-23.364C287.983,305.619,302.538,240.521,278.867,183.374z"/>
<path style="fill:#E978A0;" d="M233.133,183.374c30.23-72.983,113.727-111.06,146.965-123.687c7.938-3.015,16.84,0.672,20.321,8.417
	c14.575,32.432,46.691,118.397,16.46,191.379C378.768,351.492,256,388.024,256,388.024S195.022,275.382,233.133,183.374z"/>
<path style="opacity:0.1;enable-background:new    ;" d="M233.133,183.374c19.112-46.141,59.513-78.325,95.046-98.952
	c11.457,18.091,21.703,38.695,27.948,60.952c20.331-11.422,42.35-18.771,63.411-23.456c10.605,39.764,16.516,91.275-2.659,137.567
	c-23.545,56.842-79.393,92.503-118.651,111.465c-21.228,0.614-35.193-0.833-35.193-0.833s-10.46-8.497-24.591-23.364
	C224.017,305.619,209.462,240.521,233.133,183.374z"/>
<path style="fill:#7DD49B;" d="M256,304.359c-126.451,0-228.96,39.135-228.96,87.41s102.509,87.41,228.96,87.41
	c37.992,0,73.819-3.535,105.357-9.788c6.644-1.317,9.6-9.14,5.465-14.504l-12.713-16.489c-2.733-3.545,0.08-8.642,4.536-8.221
	l77.359,7.316c9.293,0.879,18.623-1.75,25.969-7.51c14.724-11.544,22.987-24.511,22.987-38.215
	C484.96,343.494,382.451,304.359,256,304.359z"/>
<path style="opacity:0.15;enable-background:new    ;" d="M266.44,304.453c-6.103,21.838-9.095,43.303-10.44,61.559
	c-1.345-18.256-4.337-39.721-10.44-61.559c-85.228,1.461-158.317,20.708-194.423,48.254c2.25,2.579,4.592,5.1,7.041,7.548
	c70.42,70.42,197.823,57.19,197.823,57.19s127.403,13.23,197.823-57.19c2.449-2.449,4.79-4.97,7.041-7.548
	C424.757,325.161,351.668,305.914,266.44,304.453z"/>
<g style="opacity:0.1;">
	<path d="M119.487,424.446c-3.512,0-6.647-2.478-7.351-6.054c-0.799-4.065,1.848-8.007,5.912-8.807l61.981-12.188
		c4.065-0.798,8.006,1.848,8.806,5.912c0.799,4.064-1.848,8.007-5.912,8.807l-61.982,12.188
		C120.454,424.4,119.967,424.446,119.487,424.446z"/>
	<path d="M256,449.683c-4.142,0-7.5-3.357-7.5-7.5v-24.737c0-4.143,3.358-7.5,7.5-7.5c4.142,0,7.5,3.357,7.5,7.5v24.737
		C263.5,446.325,260.142,449.683,256,449.683z"/>
</g>
<path style="fill:#F0BDD5;" d="M355.443,207.703c0-78.996-62.569-146.127-88.445-170.513c-6.18-5.824-15.815-5.824-21.995,0
	c-25.876,24.385-88.445,91.517-88.445,170.513c0,99.589,99.443,180.322,99.443,180.322S355.443,307.292,355.443,207.703z"/>
<path style="opacity:0.5;fill:#FFFFFF;enable-background:new    ;" d="M355.443,207.703c0-78.996-62.569-146.127-88.445-170.513
	c-6.18-5.824-15.815-5.824-21.995,0c-25.876,24.385-88.445,91.517-88.445,170.513c0,99.589,99.443,180.322,99.443,180.322
	S355.443,307.292,355.443,207.703z"/>
<path style="fill:#F0BDD5;" d="M511.854,147.724c-0.252-8.488-7.065-15.301-15.553-15.553
	c-35.54-1.054-127.252,2.172-183.111,58.031c-41.584,41.584-53.996,103.033-57.19,146.39c-3.195-43.357-15.606-104.806-57.19-146.39
	c-55.858-55.858-147.57-59.085-183.111-58.031c-8.488,0.252-15.301,7.065-15.553,15.553c-1.054,35.54,2.172,127.252,58.03,183.111
	c70.42,70.42,197.823,57.19,197.823,57.19s127.403,13.23,197.823-57.19C509.681,274.976,512.908,183.264,511.854,147.724z"/>
<path style="opacity:0.3;fill:#E978A0;enable-background:new    ;" d="M450.607,294.32C390.635,372.466,280.576,366.816,256,366.012
	C29.946,367.848,46.923,134.118,78.413,135.905c-25.885-3.896-48.68-4.15-62.714-3.734c-8.488,0.252-15.301,7.065-15.553,15.553
	c-1.054,35.54,2.172,127.252,58.03,183.111c70.42,70.42,197.823,57.19,197.823,57.19s127.403,13.23,197.823-57.19
	c5.837-5.837,11.092-12.07,15.835-18.586c0.722-1.191,1.531-2.342,2.443-3.439c1.652-2.394,3.234-4.823,4.755-7.282
	C485.219,283.876,465.737,274.606,450.607,294.32z"/>
<g>
</g>
<g>
</g>
<g>
</g>
<g>
</g>
<g>
</g>
<g>
</g>
<g>
</g>
<g>
</g>
<g>
</g>
<g>
</g>
<g>
</g>
<g>
</g>
<g>
</g>
<g>
</g>
<g>
</g>
</svg>
