<?xml version="1.0" encoding="iso-8859-1"?>
<!-- Generator: Adobe Illustrator 19.0.0, SVG Export Plug-In . SVG Version: 6.00 Build 0)  -->
<svg version="1.1" id="Capa_1" xmlns="http://www.w3.org/2000/svg" xmlns:xlink="http://www.w3.org/1999/xlink" x="0px" y="0px"
	 viewBox="0 0 512 512" style="enable-background:new 0 0 512 512;" xml:space="preserve">
<path style="fill:#3A484A;" d="M176.502,89.634c-1.16,0-2.339-0.262-3.447-0.816l-29.539-14.756
	c-3.818-1.907-5.366-6.547-3.459-10.365c1.908-3.818,6.547-5.365,10.365-3.459l29.539,14.756c3.818,1.907,5.366,6.547,3.459,10.365
	C182.067,88.067,179.337,89.634,176.502,89.634z"/>
<path style="fill:#57D0E6;" d="M332.846,181.954c-9.876,0-17.883-8.007-17.883-17.883V99.998c0-3.08-2.505-5.586-5.586-5.586
	H202.622c-3.079,0-5.586,2.505-5.586,5.586v64.073c0,9.876-8.007,17.883-17.883,17.883s-17.883-8.007-17.883-17.883V99.998
	c0-22.801,18.55-41.353,41.351-41.353h106.756c22.801,0,41.352,18.55,41.352,41.353v64.073
	C350.729,173.947,342.723,181.954,332.846,181.954z"/>
<path style="fill:#7CB777;" d="M116.926,108.649H62.8c-8.134,0-14.728,6.594-14.728,14.728v20.351l41.791,20.342l41.791-20.342
	v-20.351C131.654,115.243,125.06,108.649,116.926,108.649z"/>
<path style="fill:#34915D;" d="M78.978,143.729v-20.351c0-8.134,6.594-14.729,14.729-14.729H62.801
	c-8.134,0-14.729,6.594-14.729,14.729v20.351l41.791,20.342l15.453-7.521L78.978,143.729z"/>
<path style="fill:#7CB777;" d="M395.074,108.649H449.2c8.134,0,14.729,6.594,14.729,14.728v20.351l-41.791,20.342l-41.791-20.342
	v-20.351C380.346,115.243,386.94,108.649,395.074,108.649z"/>
<path style="fill:#34915D;" d="M411.251,143.729v-20.351c0-8.134,6.594-14.729,14.728-14.729h-30.905
	c-8.134,0-14.729,6.594-14.729,14.729v20.351l41.791,20.342l15.453-7.521L411.251,143.729z"/>
<g>
	<polygon style="fill:#EFEDEE;" points="109.87,143.732 69.852,143.732 39.492,327.865 69.852,512 109.87,512 144.614,327.865 	"/>
	<polygon style="fill:#EFEDEE;" points="442.148,143.732 402.13,143.732 367.386,327.865 402.13,512 442.148,512 472.508,327.865 	
		"/>
</g>
<path style="fill:#FA9F6A;" d="M502.867,182.666v290.391c0,21.511-17.434,38.944-38.944,38.944h-21.776V143.732h21.776
	C485.435,143.732,502.867,161.166,502.867,182.666z"/>
<g>
	<path style="fill:#50BFD4;" d="M179.154,181.954c9.876,0,17.883-8.007,17.883-17.883v-51.244h-35.766v51.244
		C161.271,173.947,169.277,181.954,179.154,181.954z"/>
	<path style="fill:#50BFD4;" d="M314.963,112.827v51.244c0,9.876,8.007,17.883,17.883,17.883s17.883-8.007,17.883-17.883v-51.244
		C350.729,112.827,314.963,112.827,314.963,112.827z"/>
</g>
<g>
	<rect x="109.869" y="143.731" style="fill:#FA9F6A;" width="292.262" height="368.269"/>
	<path style="fill:#FA9F6A;" d="M69.852,143.732V512H48.077c-21.511,0-38.944-17.434-38.944-38.944V182.666
		c0-21.501,17.434-38.934,38.944-38.934H69.852z"/>
</g>
<path style="fill:#E0712E;" d="M40.038,473.056V182.666c0-18.357,12.711-33.738,29.815-37.848v-1.086H48.077
	c-21.511,0-38.944,17.434-38.944,38.934v290.391c0,21.51,17.433,38.944,38.944,38.944h21.776v-1.086
	C52.749,506.805,40.038,491.421,40.038,473.056z"/>
<g>
	<path style="fill:#3A484A;" d="M174.045,217.063c-4.267,0-7.726-3.459-7.726-7.726v-14.833c0-4.267,3.459-7.726,7.726-7.726
		c4.267,0,7.726,3.459,7.726,7.726v14.833C181.771,213.604,178.312,217.063,174.045,217.063z"/>
	<path style="fill:#3A484A;" d="M337.956,217.063c-4.267,0-7.726-3.459-7.726-7.726v-14.833c0-4.267,3.459-7.726,7.726-7.726
		c4.267,0,7.726,3.459,7.726,7.726v14.833C345.682,213.604,342.223,217.063,337.956,217.063z"/>
	<path style="fill:#3A484A;" d="M256,224.98c-10.113,0-19.606-4.225-26.045-11.591c-2.809-3.213-2.481-8.093,0.731-10.902
		c3.213-2.809,8.093-2.481,10.902,0.731c3.505,4.008,8.757,6.308,14.411,6.308s10.907-2.299,14.411-6.308
		c2.807-3.213,7.688-3.542,10.902-0.731c3.213,2.808,3.541,7.689,0.731,10.902C275.606,220.755,266.113,224.98,256,224.98z"/>
</g>
<path style="fill:#EFEDEE;" d="M114.799,83.842l22.828-8.349c8.439-3.086,13.003-12.223,10.403-20.824l-7.034-23.267
	c-1.35-4.464-4.478-8.174-8.65-10.259L93.602,1.791c-8.375-4.184-18.556-0.786-22.738,7.588L55.07,40.994
	c-4.184,8.374-0.786,18.555,7.588,22.738l38.743,19.354C105.574,85.17,110.42,85.444,114.799,83.842z"/>
<circle style="fill:#3A484A;" cx="116.555" cy="51.952" r="10.935"/>
<circle style="fill:#FADC60;" cx="199.948" cy="439.146" r="38.678"/>
<path style="fill:#57D0E6;" d="M360.187,376.741l-51.166-51.166c-5.825-5.825-15.267-5.825-21.092,0l-23.709,23.708
	c-5.825,5.825-5.825,15.267,0,21.092l51.166,51.166c5.825,5.825,15.267,5.825,21.092,0l23.709-23.709
	C366.012,392.009,366.012,382.565,360.187,376.741z"/>
<g>
</g>
<g>
</g>
<g>
</g>
<g>
</g>
<g>
</g>
<g>
</g>
<g>
</g>
<g>
</g>
<g>
</g>
<g>
</g>
<g>
</g>
<g>
</g>
<g>
</g>
<g>
</g>
<g>
</g>
</svg>
