<?xml version="1.0" encoding="iso-8859-1"?>
<!-- Generator: Adobe Illustrator 19.0.0, SVG Export Plug-In . SVG Version: 6.00 Build 0)  -->
<svg version="1.1" id="Capa_1" xmlns="http://www.w3.org/2000/svg" xmlns:xlink="http://www.w3.org/1999/xlink" x="0px" y="0px"
	 viewBox="0 0 512.001 512.001" style="enable-background:new 0 0 512.001 512.001;" xml:space="preserve">
<path style="fill:#404B58;" d="M512,320.342H0V44.688c0-17.483,14.173-31.656,31.656-31.656h448.689
	c17.483,0,31.656,14.173,31.656,31.656L512,320.342L512,320.342z"/>
<path style="fill:#E8E8E8;" d="M512,320.342H0v47.828c0,17.483,14.173,31.656,31.656,31.656h448.689
	c17.483,0,31.656-14.173,31.656-31.656L512,320.342L512,320.342z"/>
<path style="fill:#79C6E4;" d="M38.123,267.783V65.592c0-7.973,6.463-14.436,14.436-14.436h406.882
	c7.973,0,14.436,6.463,14.436,14.436v202.19c0,7.973-6.463,14.436-14.436,14.436H52.559
	C44.586,282.219,38.123,275.755,38.123,267.783z"/>
<polygon style="fill:#E8E8E8;" points="314.509,399.825 197.491,399.825 187.643,466.691 324.357,466.691 "/>
<polygon style="opacity:0.1;enable-background:new    ;" points="314.509,399.825 197.491,399.825 187.643,466.691 324.357,466.691 
	"/>
<path style="fill:#E8E8E8;" d="M347.205,498.969h-182.41c-6.512,0-11.791-5.279-11.791-11.791v-8.696
	c0-6.512,5.279-11.791,11.791-11.791h182.41c6.512,0,11.791,5.279,11.791,11.791v8.696
	C358.996,493.69,353.717,498.969,347.205,498.969z"/>
<path style="opacity:0.1;enable-background:new    ;" d="M347.205,466.691h-17.343c6.512,0,11.791,5.279,11.791,11.791v8.696
	c0,6.512-5.279,11.791-11.791,11.791h17.343c6.512,0,11.791-5.279,11.791-11.791v-8.696
	C358.996,471.97,353.717,466.691,347.205,466.691z"/>
<circle style="fill:#404B58;" cx="256" cy="360.081" r="17.343"/>
<polygon style="opacity:0.1;enable-background:new    ;" points="314.509,399.825 197.491,399.825 193.783,425.001 318.217,425.001 
	"/>
<path style="opacity:0.1;enable-background:new    ;" d="M480.344,13.033h-38.123c17.483,0,31.656,14.173,31.656,31.656V368.17
	c0,17.483-14.173,31.656-31.656,31.656h38.123c17.483,0,31.656-14.173,31.656-31.656V44.688
	C512,27.206,497.827,13.033,480.344,13.033z"/>
<g>
	<path style="fill:#404B58;" d="M161.542,150.215c-4.142,0-7.5-3.358-7.5-7.5v-16.11c0-4.142,3.358-7.5,7.5-7.5s7.5,3.358,7.5,7.5
		v16.11C169.042,146.857,165.685,150.215,161.542,150.215z"/>
	<path style="fill:#404B58;" d="M256,182.218L256,182.218c-15.019,0-27.194-12.175-27.194-27.194v-19.92
		c0-4.007,3.249-7.256,7.256-7.256h39.876c4.007,0,7.256,3.248,7.256,7.256v19.92C283.194,170.043,271.019,182.218,256,182.218z"/>
	<path style="fill:#404B58;" d="M350.457,150.215c-4.142,0-7.5-3.358-7.5-7.5v-16.11c0-4.142,3.358-7.5,7.5-7.5s7.5,3.358,7.5,7.5
		v16.11C357.957,146.857,354.6,150.215,350.457,150.215z"/>
</g>
<path style="fill:#FFFFFF;" d="M406.351,242.739H114.789c-7.033,0-12.734,5.701-12.734,12.734v26.745h317.031v-26.745
	C419.086,248.441,413.384,242.739,406.351,242.739z"/>
<path style="fill:#FBE096;" d="M419.573,102.056h14.372c3.098,0,5.609-2.511,5.609-5.609V82.075c0-3.098-2.511-5.609-5.609-5.609
	h-14.372c-3.098,0-5.609,2.511-5.609,5.609v14.372C413.964,99.544,416.476,102.056,419.573,102.056z"/>
<path style="fill:#FFFFFF;" d="M419.573,152.195h14.372c3.098,0,5.609-2.511,5.609-5.609v-14.372c0-3.098-2.511-5.609-5.609-5.609
	h-14.372c-3.098,0-5.609,2.511-5.609,5.609v14.372C413.964,149.683,416.476,152.195,419.573,152.195z"/>
<path style="fill:#FDA75F;" d="M419.573,202.334h14.372c3.098,0,5.609-2.511,5.609-5.609v-14.372c0-3.098-2.511-5.609-5.609-5.609
	h-14.372c-3.098,0-5.609,2.511-5.609,5.609v14.372C413.964,199.822,416.476,202.334,419.573,202.334z"/>
<g>
</g>
<g>
</g>
<g>
</g>
<g>
</g>
<g>
</g>
<g>
</g>
<g>
</g>
<g>
</g>
<g>
</g>
<g>
</g>
<g>
</g>
<g>
</g>
<g>
</g>
<g>
</g>
<g>
</g>
</svg>
