<svg height="511pt" viewBox="-50 0 511 511.99949" width="511pt" xmlns="http://www.w3.org/2000/svg"><path d="m365.53125 55.273438-113.046875 183.144531 21.960937 15.296875 132.582032-169.539063c8.953125-11.449219 6.453125-28.074219-5.476563-36.378906-11.925781-8.308594-28.382812-4.890625-36.019531 7.476563zm0 0" fill="#e7896e"/><path d="m267.171875 22.070312-27.667969 213.441407 26.3125 4.902343 51.070313-209.078124c3.449219-14.117188-5.671875-28.238282-19.960938-30.902344-14.289062-2.664063-27.882812 7.222656-29.753906 21.636718zm0 0" fill="#e7896e"/><path d="m218.898438 259.578125c0 50.660156-41.066407 91.726563-91.726563 91.726563s-91.726563-41.066407-91.726563-91.726563 41.066407-91.726563 91.726563-91.726563 91.726563 41.066407 91.726563 91.726563zm0 0" fill="#fad989"/><path d="m127.171875 310.097656c-27.859375 0-50.519531-22.664062-50.519531-50.519531 0-27.859375 22.660156-50.519531 50.519531-50.519531 27.855469 0 50.519531 22.660156 50.519531 50.519531 0 27.855469-22.664062 50.519531-50.519531 50.519531zm0 0" fill="#f6ca56"/><path d="m359.417969 244.371094c0 59.058594-47.875 106.933594-106.933594 106.933594s-106.9375-47.875-106.9375-106.933594 47.878906-106.933594 106.9375-106.933594 106.933594 47.875 106.933594 106.933594zm0 0" fill="#ffeab7"/><path d="m252.484375 310.097656c-36.246094 0-65.730469-29.484375-65.730469-65.726562 0-36.242188 29.484375-65.730469 65.730469-65.730469 36.242187 0 65.726563 29.488281 65.726563 65.730469 0 36.242187-29.488282 65.726562-65.726563 65.726562zm0 0" fill="#fad989"/><path d="m252.484375 268.890625c-13.523437 0-24.523437-11-24.523437-24.519531 0-13.519532 11-24.523438 24.523437-24.523438 13.519531 0 24.519531 11.003906 24.519531 24.523438 0 13.519531-11 24.519531-24.519531 24.519531zm0 0" fill="#ffeab7"/><path d="m247.554688 512h-120.558594c-27.949219 0-50.605469-22.65625-50.605469-50.605469v-62.921875h221.769531v62.921875c0 27.949219-22.65625 50.605469-50.605468 50.605469zm0 0" fill="#91d4f2"/><path d="m258.585938 398.472656h-182.195313v62.921875c0 27.949219 22.65625 50.605469 50.605469 50.605469h25.644531c3.238281-7.351562 11.832031-17.910156 34.632813-22.199219 36.601562-6.882812 71.3125-26.972656 71.3125-26.972656zm0 0" fill="#59c2e8"/><path d="m57.539062 256.316406h259.472657c23.859375 0 44.652343 16.171875 50.613281 39.277344 15.835938 61.421875 17.507812 173.257812-180.351562 173.257812-197.855469 0-196.183594-111.835937-180.347657-173.257812 5.960938-23.105469 26.753907-39.277344 50.613281-39.277344zm0 0" fill="#c2eafb"/><path d="m79.4375 366.890625c-13.46875-84.371094 30.050781-107.726563 36.1875-110.574219h-58.085938c-23.863281 0-44.65625 16.171875-50.613281 39.277344-15.1875 58.898438-17.332031 164.15625 156.980469 172.707031-32.480469-15.574219-75.660156-46.253906-84.46875-101.410156zm0 0" fill="#91d4f2"/><path d="m121.320312 373.117188c0-13.578126-13.824218-24.589844-30.875-24.589844-17.054687 0-30.878906 11.011718-30.878906 24.589844 0 13.582031 13.824219 24.589843 30.878906 24.589843 17.050782 0 30.875-11.007812 30.875-24.589843zm0 0" fill="#ffb3c2"/><path d="m314.984375 373.117188c0-13.578126-13.824219-24.589844-30.875-24.589844-17.054687 0-30.878906 11.011718-30.878906 24.589844 0 13.582031 13.824219 24.589843 30.878906 24.589843 17.050781 0 30.875-11.007812 30.875-24.589843zm0 0" fill="#ffb3c2"/><g fill="#454545"><path d="m270.367188 359.621094c-4.269532 0-7.726563-3.460938-7.726563-7.726563v-12.828125c0-4.265625 3.457031-7.726562 7.726563-7.726562 4.265624 0 7.726562 3.460937 7.726562 7.726562v12.828125c0 4.265625-3.460938 7.726563-7.726562 7.726563zm0 0"/><path d="m104.183594 359.621094c-4.269532 0-7.726563-3.460938-7.726563-7.726563v-12.828125c0-4.265625 3.457031-7.726562 7.726563-7.726562 4.269531 0 7.726562 3.460937 7.726562 7.726562v12.828125c0 4.265625-3.457031 7.726563-7.726562 7.726563zm0 0"/><path d="m208.761719 366.886719c0-14.050781-9.617188-25.441407-21.488281-25.441407-11.867188 0-21.484376 11.390626-21.484376 25.441407 0 14.054687 9.617188 25.445312 21.484376 25.445312 11.871093 0 21.488281-11.390625 21.488281-25.445312zm0 0"/></g></svg>