<svg height="512pt" viewBox="-68 0 512 512.00026" width="512pt" xmlns="http://www.w3.org/2000/svg"><path d="m29.871094 228.167969 16.480468 261.132812c.804688 12.761719 11.390626 22.699219 24.175782 22.699219s23.371094-9.9375 24.175781-22.699219l16.480469-261.132812-40.65625-22.035157zm0 0" fill="#e7896e"/><path d="m58.558594 212.621094-28.683594 15.546875 16.476562 261.132812c.804688 12.761719 11.390626 22.699219 24.175782 22.699219s23.371094-9.9375 24.175781-22.699219l1.609375-25.5c-27.421875-64.75-35.277344-189.679687-37.753906-251.179687zm0 0" fill="#dd6642"/><path d="m50.023438 8.191406c-88.378907 83.953125-32.738282 132.488282-32.738282 132.488282l53.242188 25.199218 53.246094-25.199218s55.636718-48.535157-32.742188-132.488282c-11.5-10.921875-29.507812-10.921875-41.007812 0zm0 0" fill="#ffd4a3"/><path d="m49.367188 152.410156c-11.1875-11.503906-27.726563-42.324218-10.25-76.65625 1.9375-3.804687 6.589843-5.316406 10.390624-3.382812 3.800782 1.9375 5.316407 6.589844 3.378907 10.390625-16.742188 32.890625 6.578125 57.847656 7.582031 58.894531zm0 0" fill="#ffbe73"/><path d="m91.6875 152.410156c11.1875-11.503906 27.730469-42.324218 10.25-76.65625-1.933594-3.804687-6.585938-5.316406-10.390625-3.382812-3.800781 1.9375-5.3125 6.589844-3.378906 10.390625 16.742187 32.890625-6.578125 57.847656-7.578125 58.894531zm0 0" fill="#ffbe73"/><path d="m17.285156 140.679688 12.585938 87.488281h81.3125l12.589844-87.488281zm0 0" fill="#6a829a"/><path d="m17.285156 140.679688 12.585938 87.488281h29.375c-.28125-5.820313-.519532-11.292969-.71875-16.316407-.761719-19.078124 11.628906-36.101562 29.945312-41.488281 19.355469-5.695312 32.871094-12.824219 32.871094-12.824219l2.425781-16.859374zm0 0" fill="#516980"/><path d="m245.21875 94.066406h70.21875v52.957032h-70.21875zm0 0" fill="#889cb0"/><path d="m352.40625 199.683594-6.035156-47.03125c-1.804688-14.082032-15.339844-24.722656-31.445313-24.722656h-69.195312c-16.105469 0-29.640625 10.640624-31.445313 24.722656l-6.035156 47.03125zm0 0" fill="#c2eafb"/><path d="m366.742188 311.472656h-172.828126l-7.539062 58.757813c-1.109375 8.660156-1.667969 17.363281-1.667969 26.078125v29.375c0 11.34375 10.453125 20.542968 23.347657 20.542968h144.546874c12.894532 0 23.347657-9.199218 23.347657-20.542968v-29.375c0-8.714844-.558594-17.417969-1.667969-26.078125zm0 0" fill="#c2eafb"/><g fill="#91d4f2"><path d="m193.914062 311.472656-7.539062 58.757813c-1.109375 8.660156-1.667969 17.363281-1.667969 26.078125v29.375c0 11.34375 10.453125 20.542968 23.347657 20.542968h35.46875c10.8125-44.648437 11.628906-91.367187 10.34375-134.753906zm0 0"/><path d="m251.398438 199.683594c4.835937-66.097656 40.425781-71.753906 40.425781-71.753906h-46.09375c-16.105469 0-29.640625 10.640624-31.445313 24.722656l-6.035156 47.03125zm0 0"/><path d="m184.707031 396.304688v29.375c0 11.347656 10.453125 20.542968 23.347657 20.542968h144.542968c12.894532 0 23.347656-9.195312 23.347656-20.542968v-29.375c0-4.363282-.140624-8.722657-.417968-13.078126h-190.398438c-.28125 4.355469-.421875 8.714844-.421875 13.078126zm0 0"/></g><path d="m192.589844 321.773438h175.476562l-16.984375-132.390626h-141.511719zm0 0" fill="#ff8a98"/><path d="m251.03125 206.136719c.246094-6.039063.734375-11.605469 1.421875-16.753907h-42.882813l-16.980468 132.390626h61.542968c-.890624-43.054688-4.40625-83.308594-3.101562-115.636719zm0 0" fill="#fd5c6f"/><path d="m326.347656 101.125h-92.039062c-9.761719 0-17.675782-7.914062-17.675782-17.675781s7.914063-17.671875 17.675782-17.671875h92.039062c9.761719 0 17.675782 7.914062 17.675782 17.671875 0 9.765625-7.914063 17.675781-17.675782 17.675781zm0 0" fill="#a7b6c5"/><path d="m329.164062 287.105469c-4.265624 0-7.722656-3.460938-7.722656-7.726563v-12.828125c0-4.265625 3.457032-7.726562 7.722656-7.726562 4.269532 0 7.726563 3.460937 7.726563 7.726562v12.828125c0 4.265625-3.457031 7.726563-7.726563 7.726563zm0 0" fill="#454545"/><path d="m231.488281 287.105469c-4.265625 0-7.726562-3.460938-7.726562-7.726563v-12.828125c0-4.265625 3.460937-7.726562 7.726562-7.726562 4.269531 0 7.726563 3.460937 7.726563 7.726562v12.828125c0 4.265625-3.457032 7.726563-7.726563 7.726563zm0 0" fill="#454545"/><path d="m285.605469 271.660156c-1.734375 2.542969-4.253907 2.847656-5.277344 2.847656s-3.589844-.277343-5.277344-2.847656c-2.34375-3.566406-7.136719-4.558594-10.699219-2.214844-3.566406 2.339844-4.558593 7.132813-2.21875 10.699219 4.039063 6.144531 10.839844 9.816407 18.195313 9.816407 7.351563 0 14.152344-3.671876 18.191406-9.816407 2.34375-3.566406 1.351563-8.359375-2.214843-10.699219-1.308594-.859374-7.089844-3.085937-10.699219 2.214844zm0 0" fill="#454545"/><path d="m252.910156 383.226562h-67.78125c-.28125 4.355469-.421875 8.714844-.421875 13.078126v29.375c0 11.347656 10.453125 20.542968 23.347657 20.542968h35.46875c5.019531-20.730468 7.886718-41.910156 9.386718-62.996094zm0 0" fill="#59c2e8"/></svg>