<?xml version="1.0" encoding="iso-8859-1"?>
<!-- Generator: Adobe Illustrator 19.0.0, SVG Export Plug-In . SVG Version: 6.00 Build 0)  -->
<svg xmlns="http://www.w3.org/2000/svg" xmlns:xlink="http://www.w3.org/1999/xlink" version="1.1" id="Capa_1" x="0px" y="0px" viewBox="0 0 512 512" style="enable-background:new 0 0 512 512;" xml:space="preserve">
<path style="fill:#DC5371;" d="M371.001,179.562l-1.57,23.561c-0.428,6.417-4.063,12.186-9.668,15.34l-14.264,8.028  c-13.928,7.839-12.6,28.309,2.223,34.284l8.078,3.256c8.195,3.303,13.045,11.806,11.717,20.541l0,0  c-2.184,14.364,11.864,25.791,25.483,20.728l25.452-9.464c5.151-1.915,10.879-1.514,15.712,1.102l18.634,10.084  c12.698,6.872,28.128-2.322,28.128-16.76V267.97c0-5.444,2.328-10.627,6.396-14.244l16.698-14.842  c14.965-13.302,7.717-38.018-12.061-41.132l0,0c-8.499-1.338-15.047-8.204-15.981-16.757l-0.636-5.827  c-1.77-16.208-21.754-22.854-32.878-10.933l-6.351,6.806c-6.906,7.4-18.392,8.111-26.158,1.618l-7.714-6.45  C390.285,156.213,372.037,164.012,371.001,179.562z"/>
<path style="opacity:0.1;enable-background:new    ;" d="M491.959,197.752L491.959,197.752c-8.499-1.338-15.047-8.204-15.981-16.757  l-0.636-5.827c-1.496-13.7-16.004-20.565-27.176-15.165c6.363,2.323,11.535,7.934,12.396,15.817l0.636,5.827  c0.934,8.553,7.482,15.419,15.981,16.757l0,0c19.779,3.114,27.026,27.83,12.061,41.132l-16.698,14.842  c-4.068,3.616-6.396,8.8-6.396,14.244v22.293c0,4.866-1.886,11.726-4.871,18.422c10.197,0.314,19.65-7.773,19.65-19.074V267.97  c0-5.443,2.328-10.627,6.396-14.244l16.698-14.842C518.985,225.582,511.738,200.866,491.959,197.752z"/>
<path style="fill:#507CDD;" d="M180.632,421.481l-7.391-9.211c-3.227-4.022-4.273-9.372-2.797-14.313l4.706-15.756  c3.263-10.924-5.844-21.572-17.142-20.042l-9.72,1.316c-6.343,0.859-12.572-2.22-15.74-7.782l-15.688-27.532  c-9.515-16.699-34.41-13.831-39.878,4.595l-1.927,6.493c-4.353,14.669-14.638,26.851-28.368,33.604l-12.739,6.265  c-15.534,7.639-14.322,30.176,1.942,36.105l8.56,3.121c7.227,2.635,11.479,10.12,10.041,17.677l-4.804,25.246  c-2.257,11.858,9.161,21.718,20.565,17.758l23.555-8.18c4.409-1.531,9.27-1.021,13.265,1.393l14.718,8.894  c10.925,6.602,24.742-1.907,23.763-14.635l0,0c-0.592-7.691,4.494-14.672,11.997-16.466l14.495-3.466  C183.241,443.887,187.838,430.461,180.632,421.481z"/>
<path style="opacity:0.1;enable-background:new    ;" d="M180.632,421.48l-7.391-9.211c-3.227-4.022-4.273-9.372-2.797-14.313  l4.706-15.756c3.263-10.924-5.844-21.573-17.142-20.043l-9.72,1.316c-6.343,0.859-12.572-2.22-15.741-7.782l-15.688-27.532  c-9.516-16.699-34.41-13.831-39.878,4.595l-1.927,6.493c-3.97,13.376-12.882,24.671-24.832,31.68  c22.052,37.234,55.867,67.5,96.114,89.363c1.682-4.992,5.815-8.971,11.211-10.262l14.495-3.466  C183.241,443.887,187.838,430.461,180.632,421.48z"/>
<path style="fill:#4FBB74;" d="M216.85,43.445l-2.312,17.277c-1.032,7.714-7.137,13.762-14.861,14.721l0,0  c-14.938,1.855-20.384,20.698-8.74,30.237l7.186,5.887c5.581,4.572,7.697,12.152,5.292,18.954l-4.959,14.02  c-4.865,13.756,8.604,26.905,22.239,21.71l20.174-7.686c4.149-1.581,8.749-1.488,12.831,0.258l24.222,10.362  c11.318,4.842,23.894-3.485,23.857-15.795l-0.036-11.834c-0.02-6.454,3.592-12.371,9.341-15.304l20.132-10.271  c13.426-6.85,12.091-26.451-2.139-31.418l-13.462-4.699c-7.994-2.79-12.749-11.004-11.186-19.326l1.402-7.466  c2.711-14.438-12.824-25.362-25.494-17.928l-7.57,4.442c-5.679,3.332-12.765,3.113-18.227-0.564l-11.156-7.51  C232.85,24.422,218.534,30.86,216.85,43.445z"/>
<path style="opacity:0.1;enable-background:new    ;" d="M329.076,84.563l-13.462-4.698c-7.994-2.79-12.749-11.004-11.186-19.326  l1.402-7.467c2.711-14.438-12.824-25.362-25.494-17.927l-0.461,0.27c5.565,3.499,9.166,10.089,7.744,17.657l-1.402,7.467  c-1.563,8.322,3.192,16.536,11.186,19.326l13.462,4.698c14.23,4.967,15.565,24.568,2.139,31.418l-20.132,10.271  c-5.749,2.933-9.36,8.85-9.341,15.304l0.036,11.834c0.02,6.408-3.383,11.731-8.242,14.684l2.596,1.11  c11.318,4.842,23.894-3.485,23.857-15.795l-0.036-11.834c-0.02-6.454,3.592-12.371,9.341-15.304l20.132-10.271  C344.641,109.132,343.306,89.53,329.076,84.563z"/>
<path style="fill:#F2DFA6;" d="M497.22,330.857c0-48.784-39.547-88.331-88.331-88.331l0,0c-47.597,0-91.34-26.171-113.843-68.113  l-8.331-15.528c-24.818-49.65-76.128-83.75-135.411-83.75C67.741,75.135,0,142.876,0,226.439  c0,203.021,293.694,299.15,461.542,175.345l-0.001-0.003C483.191,385.682,497.22,359.91,497.22,330.857z M358.563,293.984  c-10.247,16.097-31.602,20.839-47.699,10.593c-16.097-10.247-20.839-31.602-10.593-47.699c10.247-16.097,23.784-8.558,39.881,1.689  C356.249,268.814,368.81,277.888,358.563,293.984z"/>
<path style="opacity:0.1;enable-background:new    ;" d="M497.22,330.857c0-35.48-20.929-66.056-51.105-80.104  c10.49,14.527,16.69,32.356,16.69,51.642c0,29.052-14.029,54.825-35.679,70.924l0.001,0.003  c-106.58,78.614-263.897,68.545-364.547-1.255c95.535,94.437,279.252,118.016,398.962,29.717l-0.001-0.003  C483.191,385.682,497.22,359.91,497.22,330.857z"/>
<g>
	<circle style="fill:#76C9D2;" cx="344.95" cy="387.82" r="34.55"/>
	<circle style="fill:#76C9D2;" cx="344.95" cy="387.82" r="34.55"/>
</g>
<path style="opacity:0.1;enable-background:new    ;" d="M356.488,355.254c9.306,6.19,15.441,16.768,15.441,28.783  c0,19.081-15.469,34.55-34.55,34.55c-4.046,0-7.926-0.702-11.534-1.98c5.474,3.641,12.042,5.767,19.109,5.767  c19.081,0,34.55-15.469,34.55-34.55C379.504,372.788,369.897,360.002,356.488,355.254z"/>
<circle style="fill:#507CDD;" cx="236.67" cy="387.82" r="34.55"/>
<path style="opacity:0.1;enable-background:new    ;" d="M248.206,355.254c9.306,6.19,15.441,16.768,15.441,28.783  c0,19.081-15.469,34.55-34.55,34.55c-4.046,0-7.926-0.702-11.534-1.98c5.474,3.641,12.042,5.767,19.109,5.767  c19.081,0,34.55-15.469,34.55-34.55C271.221,372.788,261.614,360.002,248.206,355.254z"/>
<circle style="fill:#EC8087;" cx="138.08" cy="339.91" r="34.55"/>
<path style="opacity:0.1;enable-background:new    ;" d="M149.615,307.342c9.306,6.19,15.441,16.769,15.441,28.783  c0,19.082-15.468,34.55-34.55,34.55c-4.046,0-7.926-0.702-11.534-1.98c5.474,3.641,12.042,5.767,19.109,5.767  c19.081,0,34.55-15.469,34.55-34.55C172.631,324.877,163.023,312.091,149.615,307.342z"/>
<circle style="fill:#DC5371;" cx="68.981" cy="254.35" r="34.55"/>
<path style="opacity:0.1;enable-background:new    ;" d="M80.515,221.781c9.306,6.19,15.441,16.768,15.441,28.783  c0,19.081-15.468,34.55-34.55,34.55c-4.046,0-7.926-0.702-11.534-1.98c5.473,3.641,12.042,5.767,19.109,5.767  c19.081,0,34.55-15.469,34.55-34.55C103.531,239.316,93.923,226.53,80.515,221.781z"/>
<circle style="fill:#4FBB74;" cx="190.83" cy="255.34" r="34.55"/>
<path style="opacity:0.1;enable-background:new    ;" d="M202.363,222.771c9.306,6.19,15.441,16.768,15.441,28.783  c0,19.081-15.468,34.55-34.55,34.55c-4.046,0-7.926-0.702-11.534-1.98c5.473,3.641,12.042,5.767,19.108,5.767  c19.081,0,34.55-15.469,34.55-34.55C225.379,240.306,215.771,227.52,202.363,222.771z"/>
<g>
</g>
<g>
</g>
<g>
</g>
<g>
</g>
<g>
</g>
<g>
</g>
<g>
</g>
<g>
</g>
<g>
</g>
<g>
</g>
<g>
</g>
<g>
</g>
<g>
</g>
<g>
</g>
<g>
</g>
</svg>
