<?xml version="1.0" encoding="iso-8859-1"?>
<!-- Generator: Adobe Illustrator 19.0.0, SVG Export Plug-In . SVG Version: 6.00 Build 0)  -->
<svg version="1.1" id="Capa_1" xmlns="http://www.w3.org/2000/svg" xmlns:xlink="http://www.w3.org/1999/xlink" x="0px" y="0px"
	 viewBox="0 0 512.001 512.001" style="enable-background:new 0 0 512.001 512.001;" xml:space="preserve">
<circle style="fill:#445258;" cx="115.51" cy="86.851" r="46.46"/>
<path style="opacity:0.1;enable-background:new    ;" d="M115.508,40.385c-2.66,0-5.264,0.236-7.802,0.665
	c21.943,3.713,38.66,22.797,38.66,45.797s-16.716,42.084-38.66,45.797c2.538,0.43,5.142,0.665,7.802,0.665
	c25.66,0,46.462-20.802,46.462-46.462S141.168,40.385,115.508,40.385z"/>
<path style="fill:#445258;" d="M483.606,123.221H28.394C12.712,123.221,0,135.933,0,151.614v291.609
	c0,15.682,12.712,28.394,28.394,28.394h455.212c15.681,0,28.394-12.712,28.394-28.394V151.614
	C512,135.933,499.288,123.221,483.606,123.221z"/>
<path style="fill:#69BFE2;" d="M248.36,327.141C174.75,283.731,65.684,305.205,0,331.794v111.429
	c0,15.681,12.712,28.394,28.394,28.394h455.213c15.681,0,28.394-12.713,28.394-28.394V332.552
	C430.661,361.954,324.285,371.918,248.36,327.141z"/>
<circle style="opacity:0.1;enable-background:new    ;" cx="354.82" cy="330.081" r="120.4"/>
<circle style="fill:#FFFFFF;" cx="344.31" cy="319.571" r="120.4"/>
<circle style="fill:#445258;" cx="344.31" cy="319.57" r="88.67"/>
<path style="opacity:0.1;enable-background:new    ;" d="M344.31,230.898c-48.972,0-88.672,39.7-88.672,88.672
	c0,26.173,11.343,49.695,29.378,65.927c-14.139-15.71-22.746-36.497-22.746-59.295c0-48.972,39.7-88.672,88.672-88.672
	c22.799,0,43.585,8.607,59.295,22.746C394.005,242.241,370.483,230.898,344.31,230.898z"/>
<circle style="opacity:0.2;enable-background:new    ;" cx="344.31" cy="319.571" r="43.677"/>
<path style="fill:#FFFFFF;" d="M189.468,203.898h-77.476c-7.081,0-12.821-5.74-12.821-12.821v-21.824
	c0-7.081,5.74-12.821,12.821-12.821h77.476c7.081,0,12.821,5.74,12.821,12.821v21.824
	C202.289,198.159,196.549,203.898,189.468,203.898z"/>
<path style="fill:#E5E5E5;" d="M169.247,86.847H61.769c-3.494,0-6.327,2.833-6.327,6.327v30.047h120.132V93.174
	C175.574,89.68,172.741,86.847,169.247,86.847z"/>
<path style="opacity:0.1;enable-background:new    ;" d="M169.247,86.847h-20.05c3.494,0,6.327,2.833,6.327,6.327v30.047h20.05
	V93.174C175.574,89.68,172.741,86.847,169.247,86.847z"/>
<circle style="fill:#FFFFFF;" cx="376.36" cy="292.521" r="22.1"/>
<g style="opacity:0.1;">
	<rect x="160.24" y="156.43" width="15" height="47.47"/>
	<rect x="126.22" y="156.43" width="15" height="47.47"/>
</g>
<g>
	<path style="fill:#69BFE2;" d="M189.498,248.757H110.39c-4.143,0-7.5-3.357-7.5-7.5s3.357-7.5,7.5-7.5h79.108
		c4.143,0,7.5,3.357,7.5,7.5C196.998,245.398,193.641,248.757,189.498,248.757z"/>
	<path style="fill:#69BFE2;" d="M155.524,275.231H110.39c-4.143,0-7.5-3.358-7.5-7.5c0-4.143,3.357-7.5,7.5-7.5h45.135
		c4.143,0,7.5,3.357,7.5,7.5C163.024,271.874,159.667,275.231,155.524,275.231z"/>
	<path style="fill:#69BFE2;" d="M414.874,184.264h57.566c4.338,0,7.854-3.516,7.854-7.854v-12.121c0-4.338-3.516-7.854-7.854-7.854
		h-57.566c-4.338,0-7.854,3.516-7.854,7.854v12.121C407.02,180.747,410.536,184.264,414.874,184.264z"/>
</g>
<path style="opacity:0.1;enable-background:new    ;" d="M44.128,123.221c11.895,0,21.537,9.642,21.537,21.537v305.322
	c0,11.895-9.642,21.537-21.537,21.537H91V123.221H44.128z"/>
<path style="opacity:0.1;fill:#FFFFFF;enable-background:new    ;" d="M28.394,123.221C12.712,123.221,0,135.933,0,151.614v291.609
	c0,15.681,12.712,28.394,28.394,28.394h15.734c11.895,0,21.537-9.642,21.537-21.537V144.758c0-11.895-9.642-21.537-21.537-21.537
	H28.394z"/>
<g style="opacity:0.1;">
	<rect x="132.34" y="86.851" width="15" height="36.37"/>
	<rect x="83.68" y="86.851" width="15" height="36.37"/>
</g>
<path style="opacity:0.1;enable-background:new    ;" d="M483.606,123.22h-27.891c13.823,1.912,24.469,13.768,24.469,28.117v291.609
	c0,15.682-12.712,28.394-28.394,28.394l31.815,0.276c15.681,0,28.394-12.712,28.394-28.394V151.614
	C512,135.933,499.288,123.22,483.606,123.22z"/>
<g>
</g>
<g>
</g>
<g>
</g>
<g>
</g>
<g>
</g>
<g>
</g>
<g>
</g>
<g>
</g>
<g>
</g>
<g>
</g>
<g>
</g>
<g>
</g>
<g>
</g>
<g>
</g>
<g>
</g>
</svg>
