<svg height="512pt" viewBox="-25 0 512 512" width="512pt" xmlns="http://www.w3.org/2000/svg"><path d="m54.652344 512c-8.625 0-15.621094-6.992188-15.621094-15.617188v-48.070312h31.238281v48.070312c0 8.625-6.992187 15.617188-15.617187 15.617188zm0 0" fill="#6a829a"/><path d="m251.769531 512c-8.628906 0-15.621093-6.992188-15.621093-15.617188v-48.070312h31.238281v48.070312c0 8.625-6.992188 15.617188-15.617188 15.617188zm0 0" fill="#6a829a"/><path d="m89.945312 23.292969h31.007813v111.929687h-31.007813zm0 0" fill="#6a829a"/><path d="m89.945312 23.292969h31.007813v55.964843h-31.007813zm0 0" fill="#516980"/><path d="m185.464844 23.292969h31.007812v111.929687h-31.007812zm0 0" fill="#6a829a"/><path d="m185.464844 23.292969h31.007812v55.964843h-31.007812zm0 0" fill="#516980"/><path d="m252.855469 477.160156h-199.292969c-29.582031 0-53.5625-23.980468-53.5625-53.5625v-213.3125c0-51.414062 41.679688-93.089844 93.09375-93.089844h120.230469c51.414062 0 93.09375 41.679688 93.09375 93.089844v213.3125c0 29.582032-23.980469 53.5625-53.5625 53.5625zm0 0" fill="#ff8a98"/><path d="m194.980469 117.195312h-101.886719c-51.414062 0-93.09375 41.679688-93.09375 93.089844v213.3125c0 29.582032 23.984375 53.5625 53.566406 53.5625h48.320313v-266.875c0-51.410156 41.679687-93.089844 93.09375-93.089844zm0 0" fill="#fd5c6f"/><path d="m132.742188 477.160156h-62.472657v-214.691406c0-17.25 13.984375-31.234375 31.238281-31.234375 17.25 0 31.234376 13.984375 31.234376 31.234375zm0 0" fill="#fd5c6f"/><path d="m101.886719 231.234375c-17.894531 0-31.617188 13.984375-31.617188 31.234375v214.695312h31.617188zm0 0" fill="#f6334c"/><path d="m236.148438 477.160156h-62.472657v-214.691406c0-17.25 13.984375-31.234375 31.238281-31.234375 17.25 0 31.238282 13.984375 31.238282 31.234375v214.691406zm0 0" fill="#fd5c6f"/><path d="m431.074219 477.160156h-198.957031c-16.59375 0-30.039063-13.449218-30.039063-30.039062v-110c0-16.589844 13.445313-30.039063 30.039063-30.039063h198.957031c16.589843 0 30.039062 13.449219 30.039062 30.039063v110c0 16.589844-13.449219 30.039062-30.039062 30.039062zm0 0" fill="#c2eafb"/><path d="m253.238281 447.121094v-110c0-16.589844 13.449219-30.039063 30.039063-30.039063h-51.160156c-16.59375 0-30.042969 13.449219-30.042969 30.039063v110c0 16.589844 13.449219 30.039062 30.042969 30.039062h51.160156c-16.589844 0-30.039063-13.449218-30.039063-30.039062zm0 0" fill="#91d4f2"/><path d="m224.070312 41.835938h-141.722656c-11.550781 0-20.917968-9.363282-20.917968-20.917969 0-11.550781 9.367187-20.917969 20.917968-20.917969h141.722656c11.550782 0 20.917969 9.367188 20.917969 20.917969 0 11.554687-9.363281 20.917969-20.917969 20.917969zm0 0" fill="#889cb0"/><path d="m431.074219 307.082031h-35.585938v170.078125h35.585938c16.589843 0 30.039062-13.449218 30.039062-30.039062v-110c0-16.589844-13.449219-30.039063-30.039062-30.039063zm0 0" fill="#76e7d6"/><path d="m293.925781 336.292969-30.78125 40.015625-19.132812-.757813c-9.410157-.375-17.242188 7.152344-17.242188 16.570313 0 9.417968 7.832031 16.945312 17.242188 16.570312l19.132812-.757812 30.78125 40.015625c4.429688 5.761719 13.628907 1.875 12.585938-5.320313l-5.246094-36.210937 47.433594-1.878907 16.441406 7.042969c3.46875 1.488281 6.902344-2.167969 5.203125-5.539062l-3.65625-7.234375c-2.121094-4.203125-2.121094-9.167969 0-13.371094l3.65625-7.238281c1.699219-3.367188-1.734375-7.027344-5.203125-5.539063l-16.441406 7.046875-47.433594-1.882812 5.246094-36.210938c1.042969-7.195312-8.152344-11.082031-12.585938-5.320312zm0 0" fill="#6a829a"/><g fill="#fffcdc"><path d="m437.421875 356.425781h-18.242187c-4.265626 0-7.726563-3.457031-7.726563-7.726562 0-4.265625 3.460937-7.726563 7.726563-7.726563h18.242187c4.265625 0 7.726563 3.460938 7.726563 7.726563 0 4.269531-3.460938 7.726562-7.726563 7.726562zm0 0"/><path d="m437.421875 385.375h-18.242187c-4.265626 0-7.726563-3.460938-7.726563-7.726562 0-4.269532 3.460937-7.726563 7.726563-7.726563h18.242187c4.265625 0 7.726563 3.457031 7.726563 7.726563 0 4.265624-3.460938 7.726562-7.726563 7.726562zm0 0"/><path d="m437.421875 414.320312h-18.242187c-4.265626 0-7.726563-3.457031-7.726563-7.726562 0-4.265625 3.460937-7.726562 7.726563-7.726562h18.242187c4.265625 0 7.726563 3.460937 7.726563 7.726562 0 4.269531-3.460938 7.726562-7.726563 7.726562zm0 0"/><path d="m437.421875 443.269531h-18.242187c-4.265626 0-7.726563-3.460937-7.726563-7.726562 0-4.269531 3.460937-7.726563 7.726563-7.726563h18.242187c4.265625 0 7.726563 3.457032 7.726563 7.726563 0 4.265625-3.460938 7.726562-7.726563 7.726562zm0 0"/></g><path d="m95.707031 193.566406c0-9.351562-9.519531-16.933594-21.261719-16.933594-11.746093 0-21.265624 7.582032-21.265624 16.933594 0 9.351563 9.519531 16.929688 21.265624 16.929688 11.742188 0 21.261719-7.578125 21.261719-16.929688zm0 0" fill="#ffdee4"/><path d="m253.238281 193.566406c0-9.351562-9.519531-16.933594-21.261719-16.933594-11.746093 0-21.265624 7.582032-21.265624 16.933594 0 9.351563 9.519531 16.929688 21.265624 16.929688 11.742188 0 21.261719-7.578125 21.261719-16.929688zm0 0" fill="#ffdee4"/><path d="m216.882812 190.710938c-4.269531 0-7.726562-3.460938-7.726562-7.726563v-12.828125c0-4.265625 3.457031-7.726562 7.726562-7.726562 4.265626 0 7.722657 3.460937 7.722657 7.726562v12.828125c0 4.265625-3.457031 7.726563-7.722657 7.726563zm0 0" fill="#454545"/><path d="m89.539062 190.710938c-4.269531 0-7.726562-3.460938-7.726562-7.726563v-12.828125c0-4.265625 3.457031-7.726562 7.726562-7.726562 4.265626 0 7.722657 3.460937 7.722657 7.726562v12.828125c0 4.265625-3.457031 7.726563-7.722657 7.726563zm0 0" fill="#454545"/><path d="m158.484375 175.265625c-1.730469 2.539063-4.25 2.847656-5.277344 2.847656-1.023437 0-3.585937-.28125-5.277343-2.847656-2.34375-3.566406-7.132813-4.558594-10.699219-2.21875-3.566407 2.34375-4.558594 7.136719-2.214844 10.703125 4.039063 6.144531 10.839844 9.816406 18.191406 9.816406 7.355469 0 14.15625-3.671875 18.195313-9.816406 2.34375-3.566406 1.351562-8.359375-2.214844-10.703125-1.308594-.855469-7.089844-3.082031-10.703125 2.21875zm0 0" fill="#454545"/></svg>