<svg viewBox="0 -3 512.00021 512" xmlns="http://www.w3.org/2000/svg"><g fill="#ebd7ff"><path d="m260.015625 81.3125s-267.546875-22.738281-259.851563 239.496094c.394532 13.476562 13.152344 23.148437 26.265626 20.011718 0 0 16.441406-3.042968 16.339843-19.804687-.308593-50.90625 24.359375-205.449219 216.386719-192.574219zm0 0"/><path d="m73.507812 246.183594s-23.085937 267.550781 239.148438 259.855468c13.476562-.398437 23.148438-13.15625 20.011719-26.269531 0 0-3.039063-16.4375-19.804688-16.339843-50.90625.308593-205.449219-24.359376-192.574219-216.382813zm0 0"/><path d="m251.984375 438.902344s267.546875 22.554687 259.851563-239.675782c-.394532-13.480468-13.152344-23.152343-26.265626-20.015624 0 0-16.441406 3.042968-16.339843 19.804687.308593 50.90625-24.359375 205.449219-216.386719 192.574219zm0 0"/><path d="m430.75 260.015625s22.554688-267.546875-239.679688-259.851563c-13.476562.394532-23.148437 13.152344-20.011718 26.265626 0 0 3.042968 16.441406 19.804687 16.339843 50.90625-.308593 205.449219 24.359375 192.574219 216.386719zm0 0"/></g><path d="m251.863281 438.902344c-98.636719 0-178.886719-80.25-178.886719-178.886719s80.25-178.886719 178.886719-178.886719 178.886719 80.25 178.886719 178.886719-80.246094 178.886719-178.886719 178.886719zm0 0" fill="#d7abf4"/><path d="m251.863281 367.3125c-59.164062 0-107.296875-48.132812-107.296875-107.296875s48.132813-107.300781 107.296875-107.300781c59.164063 0 107.296875 48.136718 107.296875 107.300781s-48.132812 107.296875-107.296875 107.296875zm0 0" fill="#c596ea"/><path d="m311.4375 260.015625c0 32.902344-26.671875 59.574219-59.574219 59.574219-32.902343 0-59.574219-26.671875-59.574219-59.574219s26.671876-59.574219 59.574219-59.574219c32.902344 0 59.574219 26.671875 59.574219 59.574219zm0 0" fill="#a874d1"/></svg>