<svg height="511pt" viewBox="-30 0 511 511.99999" width="511pt" xmlns="http://www.w3.org/2000/svg"><path d="m330.972656 512h-234.289062c-26.886719 0-48.679688-21.792969-48.679688-48.675781v-322.207031c0-26.882813 21.792969-48.675782 48.679688-48.675782h234.292968c26.882813 0 48.675782 21.792969 48.675782 48.675782v322.203124c0 26.886719-21.792969 48.679688-48.679688 48.679688zm0 0" fill="#91d4f2"/><path d="m283.46875 512h-234.289062c-26.886719 0-48.679688-21.792969-48.679688-48.675781v-322.207031c0-26.882813 21.792969-48.675782 48.675781-48.675782h234.292969c26.886719 0 48.679688 21.792969 48.679688 48.675782v322.203124c0 26.886719-21.792969 48.679688-48.679688 48.679688zm0 0" fill="#c2eafb"/><path d="m130.929688 50.820312v41.621094h37.742187v-41.046875c0-27.546875-21.691406-50.730469-49.234375-51.378906-28.367188-.671875-51.664062 22.210937-51.664062 50.433594v78.390625c0 10.421875 8.449218 18.871094 18.875 18.871094 10.421874 0 18.871093-8.445313 18.871093-18.871094v-78.390625c0-7.410157 6.375-13.359375 13.929688-12.648438 6.582031.621094 11.480469 6.40625 11.480469 13.019531zm0 0" fill="#a7b6c5"/><path d="m262.824219 50.820312v41.621094h37.742187v-41.046875c0-27.546875-21.691406-50.730469-49.230468-51.378906-28.371094-.671875-51.664063 22.210937-51.664063 50.433594v78.390625c0 10.421875 8.445313 18.871094 18.871094 18.871094 10.421875 0 18.871093-8.445313 18.871093-18.871094v-78.390625c0-7.410157 6.375-13.359375 13.929688-12.648438 6.585938.621094 11.480469 6.40625 11.480469 13.019531zm0 0" fill="#a7b6c5"/><g fill="#889cb0"><path d="m258.867188 229.820312h-185.085938c-9.746094 0-17.652344-7.90625-17.652344-17.652343 0-9.75 7.90625-17.652344 17.652344-17.652344h185.085938c9.75 0 17.652343 7.902344 17.652343 17.652344-.003906 9.75-7.90625 17.652343-17.652343 17.652343zm0 0"/><path d="m258.867188 300.421875h-185.085938c-9.746094 0-17.652344-7.902344-17.652344-17.652344 0-9.746093 7.90625-17.648437 17.652344-17.648437h185.085938c9.75 0 17.652343 7.902344 17.652343 17.648437-.003906 9.75-7.90625 17.652344-17.652343 17.652344zm0 0"/><path d="m258.867188 371.027344h-185.085938c-9.746094 0-17.652344-7.902344-17.652344-17.652344s7.90625-17.652344 17.652344-17.652344h185.085938c9.75 0 17.652343 7.90625 17.652343 17.652344-.003906 9.75-7.90625 17.652344-17.652343 17.652344zm0 0"/></g><path d="m365.535156 409.097656c-8.257812-8.257812-8.257812-21.648437 0-29.90625l39.210938-39.210937c8.257812-8.257813 21.644531-8.257813 29.902344 0 8.257812 8.257812 8.257812 21.648437 0 29.90625l-39.207032 39.210937c-8.257812 8.253906-21.648437 8.253906-29.90625 0zm0 0" fill="#00a62c"/><path d="m303.144531 449.128906-18.308593 3.714844c-9.792969 1.988281-18.445313-6.660156-16.453126-16.457031l3.714844-18.304688c1.132813-5.574219 3.878906-10.691406 7.902344-14.714843l115.980469-115.980469 37.859375 37.859375-115.984375 115.980468c-4.019531 4.023438-9.136719 6.769532-14.710938 7.902344zm0 0" fill="#29ce69"/><path d="m445.257812 287.605469-11.636718-11.636719c-7.242188-7.242188-18.980469-7.242188-26.222656 0l-19.984376 19.980469 37.859376 37.859375 19.984374-19.984375c7.242188-7.242188 7.242188-18.980469 0-26.21875zm0 0" fill="#6a829a"/><path d="m407.855469 347.191406-32.925781-32.925781c-7.21875-7.222656-7.21875-18.933594 0-26.152344 7.222656-7.222656 18.929687-7.222656 26.152343 0l32.925781 32.925781c7.222657 7.21875 7.222657 18.929688 0 26.152344-7.222656 7.21875-18.929687 7.21875-26.152343 0zm0 0" fill="#a7b6c5"/><path d="m279.996094 403.367188c-4.019532 4.023437-6.769532 9.140624-7.898438 14.714843l-3.71875 18.304688c-1.988281 9.796875 6.660156 18.445312 16.457032 16.457031l18.308593-3.714844c5.570313-1.132812 10.691407-3.878906 14.710938-7.902344l2.464843-2.464843-37.859374-37.859375zm0 0" fill="#6a829a"/><path d="m119.449219 37.800781c6.582031.621094 11.480469 6.40625 11.480469 13.019531v41.621094h37.742187v-41.046875c0-21.828125-13.605469-40.910156-32.964844-48.21875-30.964843 11.5625-30.1875 47.273438-30.1875 47.273438 0-7.410157 6.375-13.359375 13.929688-12.648438zm0 0" fill="#6a829a"/><path d="m251.34375 37.800781c6.585938.621094 11.480469 6.40625 11.480469 13.019531v41.621094h37.742187v-41.046875c0-21.828125-13.605468-40.910156-32.960937-48.21875-30.96875 11.5625-30.191407 47.273438-30.191407 47.273438 0-7.410157 6.375-13.359375 13.929688-12.648438zm0 0" fill="#6a829a"/></svg>