<svg height="512pt" viewBox="-67 0 512 512.00039" width="512pt" xmlns="http://www.w3.org/2000/svg"><path d="m92.359375 198.988281-42.523437 282.527344c-2.183594 14.488281 7.796874 28.003906 22.285156 30.1875 14.488281 2.179687 28.003906-7.800781 30.183594-22.289063l43.714843-290.425781zm0 0" fill="#e7896e"/><path d="m146.019531 198.988281h-53.660156l-25.78125 171.265625c17.296875-4.46875 35.808594-8.019531 55.246094-10.515625zm0 0" fill="#dd6642"/><path d="m286.078125 198.988281 42.523437 282.527344c2.179688 14.488281-7.796874 28.003906-22.289062 30.1875-14.488281 2.179687-28.003906-7.800781-30.183594-22.289063l-43.714844-290.425781zm0 0" fill="#e7896e"/><path d="m286.078125 198.988281h-53.664063l24.195313 160.75c19.4375 2.496094 37.953125 6.046875 55.246094 10.515625zm0 0" fill="#dd6642"/><path d="m189.21875 488.890625c-14.65625 0-26.535156-11.878906-26.535156-26.535156v-435.824219c0-14.652344 11.878906-26.53125 26.535156-26.53125 14.652344 0 26.53125 11.878906 26.53125 26.53125v435.824219c0 14.65625-11.878906 26.535156-26.53125 26.535156zm0 0" fill="#dd6642"/><path d="m215.75 356.140625v-329.609375c0-14.652344-11.878906-26.53125-26.53125-26.53125-14.65625 0-26.535156 11.878906-26.535156 26.53125v329.605469c8.722656-.421875 17.574218-.644531 26.535156-.644531s17.808594.222656 26.53125.648437zm0 0" fill="#b24e2f"/><path d="m349.355469 293.707031h-320.277344v-211.933593c0-16.054688 13.019531-29.074219 29.074219-29.074219h262.128906c16.058594 0 29.074219 13.019531 29.074219 29.074219zm0 0" fill="#c2eafb"/><path d="m260.335938 215.039062c0 28.527344-23.128907 51.65625-51.65625 51.65625-28.527344 0-51.652344-23.128906-51.652344-51.65625 0-28.527343 23.125-51.652343 51.652344-51.652343 28.527343 0 51.65625 23.125 51.65625 51.652343zm0 0" fill="#f9ee80"/><path d="m189.21875 244.445312 64.324219-45.734374c15.890625-11.300782 37.464843-10.195313 52.125 2.667968l43.6875 38.339844v53.992188h-160.136719zm0 0" fill="#29ce69"/><path d="m29.078125 244.445312 80.789063-56.988281c17.648437-12.449219 41.753906-10.074219 56.632812 5.578125l95.003906 99.929688h-232.425781zm0 0" fill="#73da8c"/><path d="m354.746094 323.703125h-331.058594c-13.082031 0-23.6875-10.605469-23.6875-23.6875s10.605469-23.6875 23.6875-23.6875h331.058594c13.082031 0 23.6875 10.605469 23.6875 23.6875s-10.605469 23.6875-23.6875 23.6875zm0 0" fill="#f2ad9a"/><path d="m55.945312 300.015625c0-13.082031 10.605469-23.6875 23.6875-23.6875h-55.945312c-13.082031 0-23.6875 10.605469-23.6875 23.6875s10.605469 23.6875 23.6875 23.6875h55.945312c-13.082031 0-23.6875-10.605469-23.6875-23.6875zm0 0" fill="#e7896e"/><path d="m131.714844 124.53125c0-9.351562-9.519532-16.933594-21.261719-16.933594-11.746094 0-21.265625 7.582032-21.265625 16.933594s9.519531 16.933594 21.265625 16.933594c11.742187 0 21.261719-7.582032 21.261719-16.933594zm0 0" fill="#ffb3c2"/><path d="m289.246094 124.53125c0-9.351562-9.519532-16.933594-21.261719-16.933594-11.746094 0-21.265625 7.582032-21.265625 16.933594s9.519531 16.933594 21.265625 16.933594c11.742187 0 21.261719-7.582032 21.261719-16.933594zm0 0" fill="#ffb3c2"/><g fill="#454545"><path d="m252.890625 121.675781c-4.269531 0-7.726563-3.460937-7.726563-7.726562v-12.828125c0-4.265625 3.457032-7.726563 7.726563-7.726563 4.265625 0 7.726563 3.460938 7.726563 7.726563v12.828125c0 4.265625-3.460938 7.726562-7.726563 7.726562zm0 0"/><path d="m125.546875 121.675781c-4.269531 0-7.726563-3.460937-7.726563-7.726562v-12.828125c0-4.265625 3.457032-7.726563 7.726563-7.726563 4.265625 0 7.726563 3.460938 7.726563 7.726563v12.828125c0 4.265625-3.460938 7.726562-7.726563 7.726562zm0 0"/><path d="m194.496094 106.230469c-1.734375 2.542969-4.253906 2.847656-5.277344 2.847656s-3.589844-.277344-5.277344-2.847656c-2.34375-3.566407-7.136718-4.558594-10.699218-2.214844-3.566407 2.339844-4.558594 7.132813-2.21875 10.699219 4.039062 6.144531 10.839843 9.816406 18.195312 9.816406 7.351562 0 14.152344-3.671875 18.191406-9.816406 2.34375-3.566406 1.351563-8.359375-2.214844-10.699219-1.308593-.859375-7.089843-3.085937-10.699218 2.214844zm0 0"/></g></svg>