<?xml version="1.0" encoding="iso-8859-1"?>
<!-- Generator: Adobe Illustrator 19.0.0, SVG Export Plug-In . SVG Version: 6.00 Build 0)  -->
<svg version="1.1" id="Capa_1" xmlns="http://www.w3.org/2000/svg" xmlns:xlink="http://www.w3.org/1999/xlink" x="0px" y="0px"
	 viewBox="0 0 512 512" style="enable-background:new 0 0 512 512;" xml:space="preserve">
<path style="fill:#54B88B;" d="M279.31,428.958c-5.597-2.602-8.015-9.246-5.4-14.837c6.359-13.594,21.698-37.816,53.641-49.442
	c30.735-11.186,63.11-5.714,81.084-0.903c7.461,1.997,10.674,10.824,6.242,17.15c-10.676,15.238-31.96,40.242-62.694,51.428
	C320.239,443.979,292.918,435.284,279.31,428.958z"/>
<path style="opacity:0.1;enable-background:new    ;" d="M279.31,428.958c-5.597-2.602-8.015-9.246-5.4-14.837
	c6.359-13.594,21.698-37.816,53.641-49.442c30.735-11.186,63.11-5.714,81.084-0.903c7.461,1.997,10.674,10.824,6.242,17.15
	c-10.676,15.238-31.96,40.242-62.694,51.428C320.239,443.979,292.918,435.284,279.31,428.958z"/>
<path style="opacity:0.1;enable-background:new    ;" d="M313.956,415.448c-3.065,0-5.941-1.892-7.049-4.936
	c-1.417-3.893,0.591-8.196,4.482-9.613l60.021-21.846c3.894-1.414,8.197,0.591,9.613,4.482c1.417,3.893-0.591,8.196-4.482,9.613
	l-60.022,21.846C315.674,415.302,314.808,415.448,313.956,415.448z"/>
<path style="fill:#54B88B;" d="M232.69,428.958c5.597-2.602,8.015-9.246,5.4-14.837c-6.359-13.594-21.698-37.816-53.641-49.442
	c-30.735-11.186-63.11-5.714-81.084-0.903c-7.461,1.997-10.674,10.824-6.242,17.15c10.676,15.238,31.96,40.242,62.694,51.428
	C191.761,443.979,219.082,435.284,232.69,428.958z"/>
<path style="opacity:0.1;enable-background:new    ;" d="M232.69,428.958c5.597-2.602,8.015-9.246,5.4-14.837
	c-6.359-13.594-21.698-37.816-53.641-49.442c-30.735-11.186-63.11-5.714-81.084-0.903c-7.461,1.997-10.674,10.824-6.242,17.15
	c10.676,15.238,31.96,40.242,62.694,51.428C191.761,443.979,219.082,435.284,232.69,428.958z"/>
<path style="opacity:0.1;enable-background:new    ;" d="M198.044,415.448c-0.852,0-1.717-0.145-2.564-0.454l-60.021-21.846
	c-3.892-1.417-5.899-5.721-4.482-9.613c1.416-3.892,5.716-5.9,9.613-4.482l60.021,21.846c3.892,1.417,5.899,5.721,4.482,9.613
	C203.984,413.557,201.107,415.448,198.044,415.448z"/>
<path style="fill:#54B88B;" d="M283.627,229.449h-55.255v254.924C228.373,499.631,240.742,512,256,512l0,0
	c15.258,0,27.627-12.369,27.627-27.627V229.449z"/>
<path style="opacity:0.1;enable-background:new    ;" d="M228.373,229.449v128.497C244.336,350.369,256,334.221,256,314.374
	c0,19.848,11.664,35.996,27.627,43.573V229.449H228.373z"/>
<path style="fill:#FFA6BB;" d="M416.887,97.964c-13.145-31.735-54.32-39.925-78.609-15.636L256,164.605l0,0h116.359
	C406.708,164.605,430.032,129.699,416.887,97.964L416.887,97.964z"/>
<path style="fill:#F985AC;" d="M256,48.247v116.359l82.278-82.278c24.289-24.289,16.098-65.464-15.636-78.609l0,0
	C290.907-9.426,256,13.898,256,48.247z"/>
<path style="fill:#7AC8E9;" d="M256,164.605L256,164.605L256,164.605z"/>
<path style="fill:#FFA6BB;" d="M173.722,82.328L256,164.605V48.247c0-34.349-34.907-57.673-66.641-44.528l0,0
	C157.624,16.864,149.434,58.039,173.722,82.328z"/>
<path style="fill:#7AC8E9;" d="M256,164.605L256,164.605L256,164.605z"/>
<path style="fill:#F985AC;" d="M372.359,164.605H256l82.278,82.278c24.289,24.289,65.464,16.098,78.609-15.636l0,0
	C430.032,199.512,406.708,164.605,372.359,164.605z"/>
<path style="fill:#FFA6BB;" d="M322.642,325.492c31.735-13.145,39.925-54.32,15.636-78.609L256,164.605l0,0v116.359
	C256,315.313,290.907,338.637,322.642,325.492L322.642,325.492z"/>
<path style="fill:#F985AC;" d="M189.359,325.492C221.093,338.637,256,315.313,256,280.964V164.605l0,0l-82.278,82.278
	C149.434,271.172,157.624,312.347,189.359,325.492L189.359,325.492z"/>
<path style="fill:#FFA6BB;" d="M173.722,246.883L256,164.605H139.642c-34.349,0-57.673,34.907-44.528,66.641l0,0
	C108.258,262.982,149.434,271.172,173.722,246.883z"/>
<path style="fill:#F985AC;" d="M95.113,97.964c-13.145,31.734,10.179,66.641,44.528,66.641H256l0,0l-82.278-82.278
	C149.434,58.039,108.258,66.229,95.113,97.964L95.113,97.964z"/>
<circle style="fill:#FBDD56;" cx="256" cy="164.6" r="88.87"/>
<g>
	<ellipse style="fill:#FF6E6E;" cx="198.02" cy="179.07" rx="21.392" ry="17.04"/>
	<ellipse style="fill:#FF6E6E;" cx="313.98" cy="179.07" rx="21.392" ry="17.04"/>
</g>
<g>
	<path style="fill:#414B58;" d="M210.49,169.578c-4.143,0-7.5-3.357-7.5-7.5v-7.555c0-4.143,3.357-7.5,7.5-7.5s7.5,3.357,7.5,7.5
		v7.555C217.99,166.221,214.633,169.578,210.49,169.578z"/>
	<path style="fill:#414B58;" d="M301.51,169.578c-4.143,0-7.5-3.357-7.5-7.5v-7.555c0-4.143,3.357-7.5,7.5-7.5s7.5,3.357,7.5,7.5
		v7.555C309.01,166.221,305.652,169.578,301.51,169.578z"/>
	<path style="fill:#414B58;" d="M256,175.379c-6.767,0-13.201-2.93-17.652-8.039c-2.722-3.123-2.396-7.86,0.728-10.581
		c3.122-2.722,7.86-2.396,10.581,0.727c1.602,1.838,3.914,2.893,6.344,2.893s4.741-1.055,6.344-2.893
		c2.721-3.124,7.459-3.449,10.581-0.727c3.123,2.721,3.449,7.458,0.728,10.581C269.201,172.449,262.767,175.379,256,175.379z"/>
</g>
<path style="opacity:0.05;enable-background:new    ;" d="M239.75,77.218c-41.323,7.636-72.625,43.854-72.625,87.388
	c0,49.084,39.791,88.875,88.875,88.875c8.146,0,16.034-1.102,23.529-3.155C148.542,221.414,199.64,103.394,239.75,77.218z"/>
<g>
</g>
<g>
</g>
<g>
</g>
<g>
</g>
<g>
</g>
<g>
</g>
<g>
</g>
<g>
</g>
<g>
</g>
<g>
</g>
<g>
</g>
<g>
</g>
<g>
</g>
<g>
</g>
<g>
</g>
</svg>
