<?xml version="1.0" encoding="iso-8859-1"?>
<!-- Generator: Adobe Illustrator 19.0.0, SVG Export Plug-In . SVG Version: 6.00 Build 0)  -->
<svg version="1.1" id="Layer_1" xmlns="http://www.w3.org/2000/svg" xmlns:xlink="http://www.w3.org/1999/xlink" x="0px" y="0px"
	 height="512" width="512" viewBox="0 0 512 512" style="enable-background:new 0 0 512 512;" xml:space="preserve">
<path style="fill:#ECD5BB;" d="M489.739,66.783v400.696c0,24.588-19.934,44.522-44.522,44.522H22.261V66.783
	c0-24.588,19.933-44.522,44.522-44.522h378.435C469.806,22.261,489.739,42.194,489.739,66.783z"/>
<path style="fill:#DE9892;" d="M411.826,305.292L411.826,305.292c0,24.589-19.934,44.522-44.522,44.522H44.522
	C19.933,349.814,0,329.88,0,305.292l0,0C0,191.569,92.19,99.379,205.913,99.379l0,0C319.636,99.379,411.826,191.569,411.826,305.292
	z"/>
<path style="fill:#CE8582;" d="M351.695,271.163c26.199-15.976,60.005,2.595,60.13,33.28c0.001,0.283,0.002,0.565,0.002,0.848l0,0
	c0,24.588-19.933,44.522-44.522,44.522H44.522C19.933,349.813,0,329.879,0,305.291l0,0c0-0.283,0.001-0.565,0.002-0.848
	c0.124-30.684,33.931-49.255,60.13-33.28c18.964,11.566,41.246,18.228,65.085,18.228h161.391
	C310.448,289.391,332.73,282.729,351.695,271.163z"/>
<path style="fill:#EDACA9;" d="M422.957,239.304c0,9.22-7.475,16.696-16.696,16.696h-11.13c-9.22,0-16.696-7.475-16.696-16.696
	s7.475-16.696,16.696-16.696h11.13C415.481,222.609,422.957,230.084,422.957,239.304z M105.739,267.13H61.217
	c-9.22,0-16.696,7.475-16.696,16.696c0,9.22,7.475,16.696,16.696,16.696h44.522c9.22,0,16.696-7.475,16.696-16.696
	C122.435,274.606,114.96,267.13,105.739,267.13z M294.957,178.087h-22.261c-9.22,0-16.696,7.475-16.696,16.696
	c0,9.22,7.475,16.696,16.696,16.696h22.261c9.22,0,16.696-7.475,16.696-16.696C311.652,185.562,304.177,178.087,294.957,178.087z
	 M105.739,122.435H83.478c-9.22,0-16.696,7.475-16.696,16.696s7.475,16.696,16.696,16.696h22.261c9.22,0,16.696-7.475,16.696-16.696
	S114.96,122.435,105.739,122.435z"/>
<path style="fill:#825E06;" d="M247.652,258.783c0,4.61-3.738,8.348-8.348,8.348h-11.13c-7.672,0-13.913,6.241-13.913,13.913v22.261
	v66.783v22.261v111.304c0,4.61-3.738,8.348-8.348,8.348c-4.61,0-8.348-3.738-8.348-8.348V392.348v-22.261v-66.783
	c0-7.672-6.241-13.913-13.913-13.913h-11.13c-4.61,0-8.348-3.738-8.348-8.348s3.738-8.348,8.348-8.348h11.13
	c5.009,0,9.736,1.217,13.913,3.359v-39.533c0-4.61,3.738-8.348,8.348-8.348c4.61,0,8.348,3.738,8.348,8.348v17.272
	c4.177-2.141,8.904-3.359,13.913-3.359h11.13C243.915,250.435,247.652,254.172,247.652,258.783z"/>
<path style="fill:#A9A632;" d="M345.043,422.956v11.13c0,24.588-19.933,44.522-44.522,44.522H166.957
	c-24.588,0-44.522-19.934-44.522-44.522v-11.13c0-61.471,49.832-111.304,111.304-111.304l0,0
	C295.211,311.652,345.043,361.485,345.043,422.956z"/>
<path style="fill:#F4F170;" d="M275.478,388.452v1.113c0,4.61-3.738,8.348-8.348,8.348s-8.348-3.738-8.348-8.348v-1.113
	c0-4.61,3.738-8.348,8.348-8.348S275.478,383.842,275.478,388.452z M300.522,375.096c-4.61,0-8.348,3.738-8.348,8.348v1.113
	c0,4.61,3.738,8.348,8.348,8.348s8.348-3.738,8.348-8.348v-1.113C308.87,378.833,305.132,375.096,300.522,375.096z M278.261,346.713
	c-4.61,0-8.348,3.738-8.348,8.348v1.113c0,4.61,3.738,8.348,8.348,8.348s8.348-3.738,8.348-8.348v-1.113
	C286.609,350.451,282.871,346.713,278.261,346.713z"/>
<path style="fill:#825E06;" d="M275.478,425.739c0,4.61-3.738,8.348-8.348,8.348H256c-7.672,0-13.913,6.241-13.913,13.913v55.652
	c0,4.61-3.738,8.348-8.348,8.348s-8.348-3.738-8.348-8.348V448v-11.13c0-7.672-6.241-13.913-13.913-13.913h-11.13
	c-4.61,0-8.348-3.738-8.348-8.348c0-4.61,3.738-8.348,8.348-8.348h11.13c11.808,0,22.068,6.725,27.172,16.542
	c4.934-3.409,10.911-5.412,17.35-5.412h11.13C271.741,417.391,275.478,421.129,275.478,425.739z"/>
<path style="fill:#7F932A;" d="M178.087,478.609L178.087,478.609c0,12.295-9.966,22.261-22.261,22.261H77.913
	c-12.295,0-22.261-9.966-22.261-22.261l0,0c0-30.736,24.917-55.652,55.652-55.652h11.13
	C153.17,422.956,178.087,447.873,178.087,478.609z"/>
<path style="fill:#EDACA9;" d="M108.522,455.235v1.113c0,4.61-3.738,8.348-8.348,8.348c-4.61,0-8.348-3.738-8.348-8.348v-1.113
	c0-4.61,3.738-8.348,8.348-8.348C104.784,446.887,108.522,450.624,108.522,455.235z"/>
<path style="fill:#8E9A9B;" d="M500.87,478.609c0,12.295-9.966,22.261-22.261,22.261h-89.043c-12.295,0-22.261-9.966-22.261-22.261
	c0-12.295,9.966-22.261,22.261-22.261h33.391c-12.295,0-22.261-9.966-22.261-22.261c0-12.295,9.966-22.261,22.261-22.261
	c-12.295,0-22.261-9.966-22.261-22.261s9.966-22.261,22.261-22.261h11.13c12.295,0,22.261,9.966,22.261,22.261
	s-9.966,22.261-22.261,22.261h44.522c12.295,0,22.261,9.966,22.261,22.261c0,12.295-9.966,22.261-22.261,22.261
	C490.903,456.348,500.87,466.314,500.87,478.609z"/>
<path style="fill:#727C7C;" d="M500.87,478.609L500.87,478.609c0,12.295-9.966,22.261-22.261,22.261h-89.043
	c-12.295,0-22.261-9.966-22.261-22.261l0,0c0-12.295,9.966-22.261,22.261-22.261h89.043
	C490.903,456.348,500.87,466.314,500.87,478.609z"/>
<path style="fill:#5F6666;" d="M456.348,389.565L456.348,389.565c0,12.295-9.966,22.261-22.261,22.261h-11.13
	c-12.295,0-22.261-9.966-22.261-22.261l0,0c0-12.295,9.966-22.261,22.261-22.261h11.13
	C446.382,367.304,456.348,377.27,456.348,389.565z"/>
<path style="fill:#DE9892;" d="M497.493,327.909c0.904,4.521-2.028,8.919-6.548,9.824l-11.127,2.226
	c-0.553,0.11-1.104,0.164-1.646,0.164c-3.898,0-7.383-2.744-8.178-6.712c-0.905-4.521,2.028-8.919,6.548-9.824l11.127-2.226
	C492.196,320.458,496.589,323.389,497.493,327.909z M430.901,142.465c-1.415-4.388-6.118-6.801-10.507-5.382
	c-4.388,1.415-6.797,6.121-5.382,10.507l3.484,10.799c1.141,3.536,4.417,5.787,7.943,5.787c0.849,0,1.713-0.13,2.564-0.405
	c4.388-1.415,6.797-6.121,5.382-10.507L430.901,142.465z M45.271,396.051l-8.712,7.27c-3.539,2.954-4.015,8.218-1.061,11.757
	c1.651,1.979,4.024,3,6.413,3c1.885,0,3.783-0.636,5.344-1.939l8.712-7.27c3.539-2.954,4.015-8.218,1.061-11.757
	C54.075,393.571,48.81,393.096,45.271,396.051z M16.912,116.026l-8.712,7.27c-3.539,2.954-4.014,8.219-1.061,11.758
	c1.651,1.978,4.024,2.999,6.413,2.999c1.885,0,3.783-0.636,5.345-1.939l8.712-7.27c3.539-2.954,4.014-8.219,1.061-11.758
	C25.716,113.546,20.452,113.071,16.912,116.026z M171.704,47.655l-9.807-5.707c-3.986-2.318-9.095-0.968-11.414,3.016
	c-2.318,3.985-0.968,9.095,3.016,11.414l9.807,5.707c1.321,0.768,2.766,1.134,4.192,1.134c2.875,0,5.672-1.487,7.223-4.151
	C177.038,55.084,175.688,49.974,171.704,47.655z M511.906,76.678c-0.682-4.559-4.926-7.701-9.492-7.02l-11.222,1.68
	c-4.56,0.682-7.702,4.932-7.02,9.492c0.62,4.141,4.182,7.113,8.245,7.113c0.411,0,0.827-0.03,1.247-0.092l11.222-1.68
	C509.447,85.486,512.59,81.237,511.906,76.678z M388.33,0.092l-11.222,1.68c-4.56,0.682-7.702,4.932-7.02,9.492
	c0.62,4.141,4.182,7.113,8.245,7.113c0.411,0,0.827-0.03,1.247-0.092l11.222-1.68c4.56-0.682,7.702-4.932,7.02-9.492
	C397.138,2.553,392.899-0.587,388.33,0.092z"/>
<path style="fill:#606D11;" d="M512,503.652c0,4.61-3.738,8.348-8.348,8.348H8.348C3.738,512,0,508.262,0,503.652
	s3.738-8.348,8.348-8.348h495.304C508.262,495.304,512,499.042,512,503.652z"/>
<g>
</g>
<g>
</g>
<g>
</g>
<g>
</g>
<g>
</g>
<g>
</g>
<g>
</g>
<g>
</g>
<g>
</g>
<g>
</g>
<g>
</g>
<g>
</g>
<g>
</g>
<g>
</g>
<g>
</g>
</svg>
