<?xml version="1.0" encoding="iso-8859-1"?>
<!-- Generator: Adobe Illustrator 19.0.0, SVG Export Plug-In . SVG Version: 6.00 Build 0)  -->
<svg version="1.1" id="Capa_1" xmlns="http://www.w3.org/2000/svg" xmlns:xlink="http://www.w3.org/1999/xlink" x="0px" y="0px"
	 viewBox="0 0 512.001 512.001" style="enable-background:new 0 0 512.001 512.001;" xml:space="preserve">
<path style="fill:#404B58;" d="M433.921,92.871H78.079c-22.924,0-41.508,18.584-41.508,41.507v222.481h438.857v-222.48
	C475.428,111.455,456.845,92.871,433.921,92.871z"/>
<path style="fill:#E8E8E8;" d="M488.815,419.129H23.185C10.38,419.129,0,408.749,0,395.944v-15.901
	c0-12.805,10.38-23.185,23.185-23.185h465.631c12.805,0,23.185,10.38,23.185,23.185v15.901
	C512,408.749,501.62,419.129,488.815,419.129z"/>
<path style="opacity:0.1;enable-background:new    ;" d="M488.815,356.859h-36.572c12.805,0,23.185,10.38,23.185,23.185v15.901
	c0,12.805-10.38,23.185-23.185,23.185h36.572c12.804,0,23.185-10.38,23.185-23.185v-15.901
	C512,367.239,501.62,356.859,488.815,356.859z"/>
<path style="fill:#79C6E4;" d="M70.03,356.859V140.75c0-7.964,6.456-14.42,14.42-14.42h343.1c7.964,0,14.42,6.456,14.42,14.42
	v216.11L70.03,356.859L70.03,356.859z"/>
<path style="opacity:0.1;enable-background:new    ;" d="M283.383,391.852h-54.765c-13.99,0-26.227-9.419-29.807-22.944
	l-3.189-12.049H316.38l-3.189,12.049C309.61,382.433,297.373,391.852,283.383,391.852z"/>
<path style="fill:#FFFFFF;" d="M382.258,322.667H129.742c-6.091,0-11.029,4.938-11.029,11.029v23.163h274.574v-23.163
	C393.287,327.605,388.349,322.667,382.258,322.667z"/>
<path style="fill:#FBE096;" d="M407.079,171.719h-17.093c-4.361,0-7.896,3.535-7.896,7.896v17.093c0,4.361,3.535,7.896,7.896,7.896
	h17.093c4.361,0,7.896-3.535,7.896-7.896v-17.093C414.976,175.255,411.44,171.719,407.079,171.719z"/>
<path style="fill:#FFFFFF;" d="M407.079,234.054h-17.093c-4.361,0-7.896,3.535-7.896,7.896v17.093c0,4.361,3.535,7.896,7.896,7.896
	h17.093c4.361,0,7.896-3.535,7.896-7.896V241.95C414.976,237.589,411.44,234.054,407.079,234.054z"/>
<g>
	<path style="fill:#404B58;" d="M192.068,229.457c-4.142,0-7.5-3.358-7.5-7.5v-10.612c0-4.142,3.358-7.5,7.5-7.5s7.5,3.358,7.5,7.5
		v10.612C199.568,226.099,196.21,229.457,192.068,229.457z"/>
	<path style="fill:#404B58;" d="M319.932,229.457c-4.142,0-7.5-3.358-7.5-7.5v-10.612c0-4.142,3.358-7.5,7.5-7.5s7.5,3.358,7.5,7.5
		v10.612C327.432,226.099,324.074,229.457,319.932,229.457z"/>
	<path style="fill:#404B58;" d="M256,237.606c-8.627,0-16.831-3.736-22.509-10.251c-2.722-3.123-2.397-7.86,0.726-10.582
		c3.122-2.722,7.86-2.397,10.581,0.726c2.829,3.245,6.911,5.106,11.202,5.106s8.373-1.861,11.202-5.106
		c2.721-3.123,7.458-3.448,10.582-0.726c3.123,2.721,3.448,7.459,0.726,10.582C272.832,233.87,264.627,237.606,256,237.606z"/>
</g>
<path style="opacity:0.1;enable-background:new    ;" d="M433.921,92.871h-19.91c22.924,0,41.508,18.584,41.508,41.507v201.934
	H36.571v20.546h438.857V134.379C475.428,111.455,456.845,92.871,433.921,92.871z"/>
<g>
</g>
<g>
</g>
<g>
</g>
<g>
</g>
<g>
</g>
<g>
</g>
<g>
</g>
<g>
</g>
<g>
</g>
<g>
</g>
<g>
</g>
<g>
</g>
<g>
</g>
<g>
</g>
<g>
</g>
</svg>
