<?xml version="1.0" encoding="iso-8859-1"?>
<!-- Generator: Adobe Illustrator 19.0.0, SVG Export Plug-In . SVG Version: 6.00 Build 0)  -->
<svg version="1.1" id="Capa_1" xmlns="http://www.w3.org/2000/svg" xmlns:xlink="http://www.w3.org/1999/xlink" x="0px" y="0px"
	 height="512" width="512" viewBox="0 0 512 512" style="enable-background:new 0 0 512 512;" xml:space="preserve">
<path style="fill:#E5E5E5;" d="M479.062,96.368H201.326c-7.107,0-14.159-1.246-20.836-3.681l-75.265-27.451
	c-6.416-2.34-13.451-2.34-19.867,0L21.652,88.471C8.651,93.213,0,105.576,0,119.415v282.03c0,22.871,22.737,38.781,44.224,30.944
	l41.134-15.002c6.416-2.34,13.451-2.34,19.867,0l75.265,27.451c6.677,2.435,13.729,3.681,20.836,3.681h277.736
	c18.191,0,32.938-14.747,32.938-32.938V129.306C512,111.115,497.253,96.368,479.062,96.368z"/>
<path style="fill:#97D68F;" d="M454.412,133.861H201.326c-7.107,0-14.159-1.246-20.836-3.681l-75.265-27.451
	c-6.416-2.34-13.451-2.34-19.867,0l-30.812,11.238c-10.24,3.734-17.053,13.471-17.053,24.371v221.94
	c0,18.012,17.907,30.542,34.829,24.37l13.036-4.754c6.416-2.34,13.451-2.34,19.867,0l75.265,27.45
	c6.677,2.435,13.729,3.681,20.836,3.681h253.086c11.098,0,20.095-8.997,20.095-20.095V153.956
	C474.506,142.858,465.51,133.861,454.412,133.861z"/>
<path style="opacity:0.1;enable-background:new    ;" d="M105.225,102.73c-6.416-2.34-13.451-2.34-19.867,0l-30.812,11.238
	c-10.24,3.735-17.053,13.471-17.053,24.371v86.138c11.289-16.627,31.583-30.536,57.798-24.73c34.864,7.722,59.82-9.645,66.654-76.33
	L105.225,102.73z"/>
<g>
	<path style="fill:#FFFFFF;" d="M365.296,133.861h-35.362c0,49.786,25.297,93.775,63.711,119.789l-58.173,58.173H200.886
		c-6.816,0-13.579-1.195-19.982-3.53l-74.929-27.328c-6.9-2.517-14.466-2.517-21.366,0l-47.115,17.183v35.362l47.115-17.184
		c6.9-2.516,14.466-2.516,21.366,0l74.929,27.328c6.403,2.335,13.166,3.53,19.982,3.53h99.224l-63.84,63.84h50.01L426.925,270.38
		c14.908,5.211,30.918,8.054,47.581,8.054v-35.362C414.288,243.072,365.296,194.08,365.296,133.861z"/>
	<path style="fill:#FFFFFF;" d="M302.232,223.907c0,20.796-17.228,37.567-38.19,36.822c-19.966-0.71-35.502-17.726-35.502-37.705
		v-37.226c0-5.466,4.431-9.896,9.896-9.896h53.9c5.466,0,9.896,4.431,9.896,9.896V223.907z"/>
</g>
<path style="fill:#D77458;" d="M302.232,208.966H228.54v-23.168c0-5.466,4.431-9.896,9.896-9.896h53.9
	c5.466,0,9.896,4.431,9.896,9.896V208.966z"/>
<path style="fill:#445258;" d="M265.386,242.88c-4.142,0-7.5-3.358-7.5-7.5v-2.412c0-4.142,3.358-7.5,7.5-7.5s7.5,3.358,7.5,7.5
	v2.412C272.886,239.522,269.528,242.88,265.386,242.88z"/>
<path style="opacity:0.1;enable-background:new    ;" d="M180.49,92.687l-75.265-27.451c-3.208-1.17-6.571-1.755-9.934-1.755
	v352.151c3.363,0,6.726,0.585,9.934,1.755l75.265,27.45c3.286,1.199,6.663,2.105,10.093,2.721V95.408
	C187.154,94.792,183.776,93.885,180.49,92.687z"/>
<g>
</g>
<g>
</g>
<g>
</g>
<g>
</g>
<g>
</g>
<g>
</g>
<g>
</g>
<g>
</g>
<g>
</g>
<g>
</g>
<g>
</g>
<g>
</g>
<g>
</g>
<g>
</g>
<g>
</g>
</svg>
