<?xml version="1.0" encoding="iso-8859-1"?>
<!-- Generator: Adobe Illustrator 19.0.0, SVG Export Plug-In . SVG Version: 6.00 Build 0)  -->
<svg version="1.1" id="Capa_1" xmlns="http://www.w3.org/2000/svg" xmlns:xlink="http://www.w3.org/1999/xlink" x="0px" y="0px"
	 viewBox="0 0 512.001 512.001" style="enable-background:new 0 0 512.001 512.001;" xml:space="preserve">
<g>
	<path style="fill:#404B58;" d="M110.541,421.382c-16.633,0-31.355-1.509-44.021-4.524c-23.522-5.598-38.627-16.101-44.897-31.212
		c-16.079-38.754,33.904-89.735,78.665-125.68c25.878-20.78,43.932-38.408,53.66-52.393c6.699-9.631,9.197-17.294,6.851-21.021
		c-6.602-10.49-50.955-6.852-89.018,11.389c-13.649,6.541-27.378,8.234-39.7,4.9c-11.934-3.229-21.547-10.993-27.068-21.861
		c-7.903-15.553-6.408-35.495,4.103-54.712c11.903-21.766,34.911-42.26,66.534-59.269c37.029-19.915,78.983-30.852,118.274-30.852
		c0.39,0,0.777,0.001,1.167,0.003c37.973,0.21,70.137,10.257,90.568,28.293c21.71,19.164,27.643,45.293,16.706,73.577
		c-15.521,40.139-17.618,69.037-5.904,81.371c5.835,6.144,18.722,11.521,46.975,2.238c3.938-1.294,8.174,0.85,9.466,4.785
		c1.293,3.935-0.849,8.173-4.784,9.466c-35.709,11.73-53.715,3.125-62.533-6.159c-16.393-17.26-15.454-49.933,2.79-97.111
		c8.63-22.319,4.259-42.002-12.643-56.921c-17.456-15.409-46.879-24.352-80.725-24.539c-0.362-0.002-0.727-0.003-1.09-0.003
		c-36.851,0-76.28,10.302-111.162,29.063c-36.714,19.745-53.152,39.858-60.48,53.254c-8.098,14.808-9.517,29.649-3.891,40.72
		c7.869,15.487,27.162,19.694,46.913,10.228c36.036-17.268,93.683-28.909,108.196-5.85c11.776,18.709-9.099,49.163-63.814,93.101
		c-56.778,45.594-83.824,85.045-74.202,108.235c5.385,12.98,21.742,19.328,34.516,22.368c19.606,4.667,46.142,5.348,76.741,1.968
		c49.456-5.461,77.941-22.163,103.072-36.898c36.683-21.509,65.659-38.5,133.603-1.891c3.646,1.965,5.01,6.514,3.045,10.16
		c-1.966,3.646-6.514,5.009-10.16,3.045c-60.517-32.606-83.743-18.988-118.9,1.625c-25.117,14.727-56.377,33.055-109.013,38.867
		C134.864,420.636,122.23,421.381,110.541,421.382z"/>
	
		<rect x="335.744" y="154.552" transform="matrix(-0.7071 -0.7071 0.7071 -0.7071 550.1262 585.8741)" style="fill:#404B58;" width="121.314" height="48.9"/>
</g>
<path style="fill:#ED718B;" d="M456.589,204.612l-85.785-85.785l46.318-46.318c12.125-12.125,31.782-12.125,43.908,0l41.878,41.878
	c12.125,12.125,12.125,31.782,0,43.908L456.589,204.612z"/>
<rect x="151.373" y="229.969" transform="matrix(-0.7071 0.7071 -0.7071 -0.7071 691.6497 294.7618)" style="fill:#FDA75F;" width="266.809" height="121.314"/>
<rect x="264.566" y="157.227" transform="matrix(-0.7071 -0.7071 0.7071 -0.7071 280.6533 697.5134)" style="opacity:0.05;enable-background:new    ;" width="40.441" height="266.809"/>
<path style="fill:#FBE096;" d="M232.822,392.154l-17.855,4.52c-4.613,1.168-8.798-3.018-7.63-7.63l4.52-17.855
	c1.168-4.612-3.018-8.798-7.63-7.63l-17.855,4.52c-4.613,1.168-8.798-3.018-7.63-7.63l4.52-17.855
	c1.168-4.612-3.018-8.798-7.63-7.63l-28.071,7.107c-9.792,9.793-17.2,21.71-21.645,34.826l-25.355,74.808
	c-4.856,14.329,8.822,28.007,23.151,23.151l74.808-25.355c13.117-4.445,25.033-11.852,34.827-21.645l7.107-28.071
	C241.62,395.172,237.434,390.986,232.822,392.154z"/>
<path style="fill:#404B58;" d="M115.592,407.351l-15.033,44.354c-4.856,14.329,8.822,28.007,23.151,23.151l44.353-15.033
	L115.592,407.351z"/>
<path style="opacity:0.1;enable-background:new    ;" d="M502.907,114.386l-15.949-15.949c12.124,12.125,12.124,31.782,0,43.907
	l-46.318,46.318l-34.578,34.578l0,0L217.395,411.908c-9.792,9.792-21.709,17.2-34.826,21.645l-74.808,25.355
	c-2.756,0.934-5.487,1.177-8.068,0.866c1.303,10.835,12.446,19.005,24.017,15.083l74.808-25.355
	c13.117-4.445,25.033-11.852,34.827-21.645L422.011,239.19l0,0l34.578-34.578l46.318-46.318
	C515.031,146.169,515.031,126.511,502.907,114.386z"/>
<g>
</g>
<g>
</g>
<g>
</g>
<g>
</g>
<g>
</g>
<g>
</g>
<g>
</g>
<g>
</g>
<g>
</g>
<g>
</g>
<g>
</g>
<g>
</g>
<g>
</g>
<g>
</g>
<g>
</g>
</svg>
