<svg height="511pt" viewBox="0 -40 511.99871 511" width="511pt" xmlns="http://www.w3.org/2000/svg"><path d="m184.484375 177.792969h-95.695313v-25.890625c0-15.6875 12.71875-28.402344 28.40625-28.402344h38.882813c15.6875 0 28.402344 12.714844 28.402344 28.402344v25.890625zm0 0" fill="#fd5c6f"/><path d="m359.789062 177.792969h-141.792968v-76.011719c0-17.992188 14.585937-32.578125 32.578125-32.578125h76.636719c17.992187 0 32.578124 14.585937 32.578124 32.578125zm0 0" fill="#6a829a"/><path d="m394.449219 430.761719h-327.148438c-30.113281 0-54.523437-24.410157-54.523437-54.523438v-163.097656c0-30.109375 24.410156-54.523437 54.523437-54.523437h327.148438c30.109375 0 54.523437 24.414062 54.523437 54.523437v163.097656c-.003906 30.113281-24.414062 54.523438-54.523437 54.523438zm0 0" fill="#76e7d6"/><path d="m67.300781 158.617188c-30.113281 0-54.523437 24.410156-54.523437 54.523437v163.097656c0 30.113281 24.410156 54.523438 54.523437 54.523438h255.265625c38.679688-30.046875 40.660156-74.214844 40.660156-74.214844s-107.570312-21.757813-107.226562-20.386719c-80.695312-59.746094-71.519531-177.53125-71.515625-177.542968zm0 0" fill="#00ddc4"/><path d="m134.261719 158.617188h-66.964844c-30.109375 0-54.523437 24.414062-54.523437 54.523437v163.097656c0 30.113281 24.414062 54.523438 54.523437 54.523438h66.964844zm0 0" fill="#b0f0e6"/><path d="m386.242188 294.691406c0 52.257813-42.363282 94.625-94.625 94.625-52.261719 0-94.628907-42.367187-94.628907-94.625 0-52.261718 42.367188-94.628906 94.628907-94.628906 52.261718 0 94.625 42.367188 94.625 94.628906zm0 0" fill="#6a829a"/><path d="m318.945312 129.421875h-60.109374c-8.566407 0-15.511719-6.945313-15.511719-15.511719s6.945312-15.511718 15.511719-15.511718h60.109374c8.570313 0 15.515626 6.945312 15.515626 15.511718 0 8.570313-6.945313 15.511719-15.515626 15.511719zm0 0" fill="#fcf5af"/><path d="m67.296875 158.617188c-30.109375 0-54.523437 24.414062-54.523437 54.523437 0 0 24.542968 40.523437 60.746093 40.523437s60.742188-40.523437 60.742188-40.523437v-54.523437zm0 0" fill="#ff8a98"/><path d="m350.59375 294.691406c0 32.570313-26.40625 58.976563-58.976562 58.976563-32.570313 0-58.976563-26.40625-58.976563-58.976563 0-32.574218 26.40625-58.976562 58.976563-58.976562 32.570312 0 58.976562 26.402344 58.976562 58.976562zm0 0" fill="#91d4f2"/><path d="m291.617188 274.601562c25.753906 0 47.648437 16.539063 55.6875 39.554688 2.125-6.089844 3.289062-12.652344 3.289062-19.464844 0-32.574218-26.40625-58.976562-58.976562-58.976562-32.570313 0-58.976563 26.402344-58.976563 58.976562 0 6.8125 1.160156 13.375 3.289063 19.464844 8.035156-23.015625 29.929687-39.554688 55.6875-39.554688zm0 0" fill="#59c2e8"/><path d="m198.140625 387.527344c0 10.070312-8.164063 18.234375-18.234375 18.234375s-18.234375-8.164063-18.234375-18.234375c0-10.070313 8.164063-18.234375 18.234375-18.234375s18.234375 8.164062 18.234375 18.234375zm0 0" fill="#fffcdc"/><g fill="#f9ee80"><path d="m445.679688 91.515625 7.753906 14.175781c7.734375 14.144532 19.363281 25.773438 33.503906 33.503906l14.179688 7.757813c14.507812 7.933594 14.507812 28.773437 0 36.707031l-14.179688 7.753906c-14.140625 7.738282-25.769531 19.363282-33.503906 33.507813l-7.753906 14.175781c-7.933594 14.511719-28.773438 14.511719-36.710938 0l-7.753906-14.175781c-7.734375-14.144531-19.363282-25.769531-33.503906-33.507813l-14.175782-7.753906c-14.511718-7.933594-14.511718-28.773437 0-36.707031l14.175782-7.757813c14.140624-7.734374 25.769531-19.359374 33.503906-33.503906l7.753906-14.175781c7.9375-14.511719 28.777344-14.511719 36.710938 0zm0 0"/><path d="m73.382812 8.25 5.523438 10.097656c5.507812 10.074219 13.789062 18.355469 23.863281 23.863282l10.097657 5.523437c10.335937 5.652344 10.335937 20.496094 0 26.148437l-10.097657 5.519532c-10.074219 5.511718-18.355469 13.792968-23.863281 23.867187l-5.523438 10.097657c-5.652343 10.332031-20.496093 10.332031-26.148437 0l-5.519531-10.097657c-5.511719-10.074219-13.792969-18.355469-23.867188-23.867187l-10.097656-5.519532c-10.332031-5.652343-10.332031-20.496093 0-26.148437l10.097656-5.523437c10.074219-5.507813 18.355469-13.789063 23.867188-23.863282l5.519531-10.097656c5.652344-10.335938 20.496094-10.335938 26.148437 0zm0 0"/></g></svg>