<?xml version="1.0" encoding="iso-8859-1"?>
<!-- Generator: Adobe Illustrator 19.0.0, SVG Export Plug-In . SVG Version: 6.00 Build 0)  -->
<svg version="1.1" id="Capa_1" xmlns="http://www.w3.org/2000/svg" xmlns:xlink="http://www.w3.org/1999/xlink" x="0px" y="0px"
	 viewBox="0 0 512 512" style="enable-background:new 0 0 512 512;" xml:space="preserve">
<path style="fill:#4A5058;" d="M98.982,512H70.433c-8.227,0-14.897-6.67-14.897-14.897v-61.544h58.343v61.544
	C113.879,505.33,107.21,512,98.982,512z"/>
<rect x="55.54" y="435.56" style="opacity:0.1;enable-background:new    ;" width="58.34" height="19.07"/>
<path style="fill:#4A5058;" d="M307.929,512h28.549c8.227,0,14.897-6.67,14.897-14.897v-61.544h-58.343v61.544
	C293.032,505.33,299.701,512,307.929,512z"/>
<rect x="293.03" y="435.56" style="opacity:0.1;enable-background:new    ;" width="58.34" height="19.07"/>
<path style="fill:#4A5058;" d="M376.028,337.09v-40.105c0-79.456-52.45-149.373-128.732-171.603l0,0
	c-12.217-3.56-20.617-14.758-20.617-27.483l0,0C226.678,43.83,182.848,0,128.781,0l0,0C74.713,0,30.883,43.83,30.883,97.898V337.09
	H376.028z"/>
<g>
	<path style="fill:#DFE3E5;" d="M326.722,435.575h36.168c7.256,0,13.138-5.882,13.138-13.138V337.09h-49.306V435.575z"/>
	<rect x="277.42" y="337.09" style="fill:#DFE3E5;" width="49.31" height="98.49"/>
</g>
<rect x="277.42" y="337.09" style="opacity:0.1;enable-background:new    ;" width="49.31" height="98.49"/>
<path style="fill:#4A5058;" d="M337.608,390.798h-21.772c-2.198,0-3.98-1.782-3.98-3.98v-49.729h29.732v49.729
	C341.588,389.016,339.806,390.798,337.608,390.798z"/>
<g>
	<rect x="228.11" y="337.09" style="fill:#DFE3E5;" width="49.31" height="98.49"/>
	<rect x="178.8" y="337.09" style="fill:#DFE3E5;" width="49.31" height="98.49"/>
</g>
<rect x="178.8" y="337.09" style="opacity:0.1;enable-background:new    ;" width="49.31" height="98.49"/>
<path style="fill:#4A5058;" d="M238.995,390.798h-21.772c-2.198,0-3.98-1.782-3.98-3.98v-49.729h29.732v49.729
	C242.975,389.016,241.193,390.798,238.995,390.798z"/>
<g>
	<rect x="129.5" y="337.09" style="fill:#DFE3E5;" width="49.31" height="98.49"/>
	<rect x="80.19" y="337.09" style="fill:#DFE3E5;" width="49.31" height="98.49"/>
</g>
<rect x="80.19" y="337.09" style="opacity:0.1;enable-background:new    ;" width="49.31" height="98.49"/>
<path style="fill:#4A5058;" d="M140.382,390.798H118.61c-2.198,0-3.98-1.782-3.98-3.98v-49.729h29.732v49.729
	C144.362,389.016,142.58,390.798,140.382,390.798z"/>
<path style="fill:#DFE3E5;" d="M44.021,435.575h36.168v-98.486H30.883v85.347C30.883,429.693,36.765,435.575,44.021,435.575z"/>
<path style="fill:#4A5058;" d="M91.075,390.798H69.303c-2.198,0-3.98-1.782-3.98-3.98v-49.729h29.732v49.729
	C95.055,389.016,93.273,390.798,91.075,390.798z"/>
<rect x="30.883" y="337.09" style="opacity:0.1;enable-background:new    ;" width="345.14" height="26.854"/>
<path style="fill:#80CBDE;" d="M478.542,78.381l-14.793-12.825c-4.705-4.079-5.339-11.151-1.434-16.002l14.844-18.442
	c4.365-5.423-0.433-13.336-7.259-11.974l-19.509,3.891c-16.884,3.368-34.329,2.637-50.872-2.13l0,0
	c-13.295-3.831-27.062-5.775-40.897-5.775H333.97c-11.102,0-20.102,9-20.102,20.102v159.881h44.754V88.34l0,0
	c13.836,0,27.603,1.944,40.897,5.775l0,0c16.543,4.767,33.988,5.498,50.872,2.13l24.728-4.932
	C481.193,90.102,483.221,82.438,478.542,78.381z"/>
<path style="opacity:0.1;enable-background:new    ;" d="M313.868,121.033v74.074h44.754v-44.87
	C348.939,135.406,332.832,124.571,313.868,121.033z"/>
<ellipse style="fill:#80CBDE;" cx="290.59" cy="195.11" rx="68.03" ry="62.964"/>
<path style="opacity:0.1;enable-background:new    ;" d="M335.573,147.877c7.076,9.932,11.199,21.826,11.199,34.612
	c0,34.774-30.46,62.964-68.035,62.964c-17.248,0-32.994-5.943-44.986-15.734c12.168,17.079,33.078,28.352,56.836,28.352
	c37.575,0,68.035-28.19,68.035-62.964C358.622,176.296,349.705,159.414,335.573,147.877z"/>
<g>
</g>
<g>
</g>
<g>
</g>
<g>
</g>
<g>
</g>
<g>
</g>
<g>
</g>
<g>
</g>
<g>
</g>
<g>
</g>
<g>
</g>
<g>
</g>
<g>
</g>
<g>
</g>
<g>
</g>
</svg>
