<?xml version="1.0" encoding="iso-8859-1"?>
<!-- Generator: Adobe Illustrator 19.0.0, SVG Export Plug-In . SVG Version: 6.00 Build 0)  -->
<svg version="1.1" id="Capa_1" xmlns="http://www.w3.org/2000/svg" xmlns:xlink="http://www.w3.org/1999/xlink" x="0px" y="0px"
	 height="512" width="512" viewBox="0 0 512 512" style="enable-background:new 0 0 512 512;" xml:space="preserve">
<path style="fill:#E8E8E8;" d="M380.284,193.248H129.36V30.842c0-12.873,10.436-23.308,23.309-23.308h204.306
	c12.873,0,23.309,10.436,23.309,23.308V193.248z"/>
<path style="fill:#90DCA3;" d="M160.117,193.248V52.162c0-7.661,6.21-13.871,13.871-13.871h161.667
	c7.661,0,13.871,6.21,13.871,13.871v141.086H160.117z"/>
<path style="opacity:0.1;enable-background:new    ;" d="M377.354,90.953c-11.403-4.436-24.227-3.269-34.642,3.153
	c-31.448,19.389-59.181,44.238-81.893,73.376l-8.893,11.408L129.361,56.323v136.924h250.923V92.182
	C379.319,91.75,378.344,91.338,377.354,90.953z"/>
<rect x="214.182" y="273.89" transform="matrix(0.7071 -0.7071 0.7071 0.7071 -130.5017 277.0612)" style="fill:#404B58;" width="110.019" height="44.34"/>
<path style="fill:#ED718B;" d="M245.971,350.634l77.792-77.793l42.003,42.003c10.995,10.995,10.995,28.822,0,39.817l-37.976,37.976
	c-10.995,10.995-28.822,10.995-39.817,0L245.971,350.634z"/>
<rect x="46.991" y="139.829" transform="matrix(-0.7071 -0.7071 0.7071 -0.7071 148.971 451.3834)" style="fill:#FDA75F;" width="241.958" height="110.019"/>
<rect x="149.635" y="73.859" transform="matrix(0.7071 -0.7071 0.7071 0.7071 -88.5738 175.8398)" style="opacity:0.05;enable-background:new    ;" width="36.672" height="241.958"/>
<path style="fill:#FBE096;" d="M75.903,147.715l-4.099-16.191c-1.059-4.183,2.737-7.979,6.92-6.92l16.191,4.099
	c4.183,1.059,7.979-2.737,6.92-6.92l-4.099-16.191c-1.059-4.183,2.737-7.979,6.92-6.92l16.191,4.099
	c4.183,1.059,7.979-2.737,6.92-6.92l-6.445-25.456c-8.881-8.881-19.687-15.597-31.581-19.629L21.9,27.776
	c-12.993-4.404-25.398,8-20.994,20.994l22.993,67.838c4.031,11.895,10.748,22.701,19.628,31.581l25.456,6.445
	C73.166,155.693,76.962,151.898,75.903,147.715z"/>
<path style="fill:#404B58;" d="M62.121,41.408L21.9,27.776c-12.993-4.404-25.398,8-20.994,20.994l13.632,40.221L62.121,41.408z"/>
<path style="opacity:0.1;enable-background:new    ;" d="M327.791,392.637l14.463-14.463c-10.995,10.994-28.821,10.994-39.816-0.001
	l-42.003-42.003l-31.356-31.356l0,0L57.99,133.726c-8.881-8.88-15.597-19.687-19.628-31.581L15.369,34.306
	c-0.847-2.5-1.067-4.976-0.786-7.317C4.757,28.171-2.651,38.276,0.906,48.77l22.993,67.838
	c4.031,11.895,10.748,22.701,19.628,31.582l171.089,171.089l0,0l31.356,31.356l42.003,42.003
	C298.969,403.632,316.796,403.632,327.791,392.637z"/>
<path style="fill:#FBE096;" d="M478.279,139.582c22.403-22.403,34.457-71.27,33.686-117.191
	c-0.141-8.407-8.116-14.424-16.238-12.248c-37.896,10.153-86.572,16.213-108.623,38.265c-25.177,25.177-25.177,65.998,0,91.175
	C412.281,164.759,453.102,164.759,478.279,139.582z"/>
<path style="opacity:0.1;enable-background:new    ;" d="M387.104,139.582c-0.242-0.242-0.465-0.494-0.702-0.739
	c24.844,15.293,57.806,12.191,79.336-9.339c22.403-22.403,34.456-71.27,33.686-117.191c-0.015-0.902-0.125-1.774-0.311-2.613
	c6.817,0.007,12.731,5.463,12.852,12.691c0.77,45.921-11.283,94.788-33.686,117.191
	C453.102,164.759,412.282,164.759,387.104,139.582z"/>
<g style="opacity:0.1;">
	<path d="M447.549,126.833c-2.57,0-5.073-1.322-6.472-3.698c-2.1-3.57-0.908-8.167,2.662-10.268
		c16.6-9.765,28.818-41.342,29.759-52.621c0.345-4.129,3.988-7.209,8.097-6.851c4.128,0.344,7.195,3.969,6.851,8.097
		c-1.299,15.589-15.185,51.413-37.101,64.305C450.15,126.499,448.841,126.833,447.549,126.833z"/>
	<path d="M400.66,89.645c-0.522,0-1.053-0.056-1.584-0.17c-4.05-0.87-6.627-4.859-5.756-8.908
		c3.654-16.999,22.362-27.781,31.743-31.107c3.907-1.382,8.192,0.658,9.575,4.561c1.385,3.904-0.658,8.191-4.562,9.575
		c-7.986,2.832-20.119,10.947-22.093,20.123C407.228,87.238,404.118,89.645,400.66,89.645z"/>
</g>
<path style="fill:#ED718B;" d="M258.114,327.428l78.977-61.561c29.138-22.713,53.987-50.446,73.376-81.893l0,0
	c6.421-10.415,7.589-23.238,3.153-34.642l0,0c-6.471-16.637-19.628-29.794-36.265-36.265l0,0
	c-11.403-4.436-24.227-3.268-34.642,3.153l0,0c-31.448,19.389-59.18,44.238-81.893,73.376l-61.561,78.977
	c-13.012,16.694-11.545,40.467,3.422,55.434l0,0C217.646,338.973,241.42,340.44,258.114,327.428z"/>
<path style="fill:#404B58;" d="M309.901,139.529c10.404-8.453,21.358-16.247,32.811-23.309l0,0
	c10.415-6.421,23.239-7.589,34.642-3.153l0,0c16.637,6.471,29.794,19.628,36.265,36.265l0,0c4.436,11.403,3.268,24.227-3.153,34.642
	l0,0c-7.062,11.453-14.855,22.406-23.309,32.811L309.901,139.529z"/>
<path style="opacity:0.1;enable-background:new    ;" d="M337.09,265.867l-78.977,61.561c-16.694,13.012-40.467,11.545-55.434-3.422
	l0,0c-2.354-2.355-4.374-4.928-6.056-7.656c14.616,9.012,33.71,8.331,47.777-2.635l78.977-61.561
	c29.138-22.713,53.986-50.446,73.376-81.893l0,0c6.422-10.415,7.589-23.238,3.153-34.642l0,0
	c-2.035-5.232-4.733-10.118-7.991-14.562c9.687,7.101,17.267,16.869,21.704,28.274l0,0c4.436,11.403,3.268,24.227-3.153,34.642l0,0
	C391.077,215.422,366.228,243.154,337.09,265.867z"/>
<path style="fill:#404B58;" d="M449.462,504.466H60.182c-21.313,0-38.59-17.277-38.59-38.59V246.11
	c0-21.313,17.278-38.59,38.59-38.59h389.28c21.313,0,38.59,17.277,38.59,38.59v219.766
	C488.052,487.189,470.775,504.466,449.462,504.466z"/>
<path style="opacity:0.1;enable-background:new    ;" d="M484.034,228.964c-1.702-0.341-3.46-0.522-5.262-0.522h-447.9
	c-1.801,0-3.561,0.181-5.262,0.522c-2.567,5.167-4.018,10.986-4.018,17.146v116.943c8.778,9.617,20.405,16.708,33.794,19.866
	l58.051,13.694c26.129,6.163,52.56,10.594,79.124,13.294v7.155c0,9.111,7.386,16.497,16.497,16.497h91.529
	c9.111,0,16.497-7.386,16.497-16.497v-7.155c26.564-2.699,52.995-7.13,79.124-13.294l58.052-13.694
	c0.222-0.052,0.44-0.115,0.662-0.169v83.126c0,21.313-17.277,38.59-38.59,38.59h33.132c21.313,0,38.59-17.278,38.59-38.59V246.11
	C488.052,239.95,486.602,234.131,484.034,228.964z"/>
<path style="fill:#79C6E4;" d="M454.259,347.725l-58.051,13.693c-92.981,21.933-189.789,21.933-282.77,0l-58.051-13.693
	c-29.99-7.074-51.179-33.843-51.179-64.656v-63.156c0-14.727,11.939-26.665,26.666-26.665h447.9
	c14.727,0,26.665,11.939,26.665,26.665v63.156C505.438,313.883,484.249,340.651,454.259,347.725z"/>
<g>
	<path style="fill:#404B58;" d="M185.275,275.362c-4.143,0-7.5-3.357-7.5-7.5V256c0-4.143,3.357-7.5,7.5-7.5s7.5,3.357,7.5,7.5
		v11.862C192.775,272.005,189.418,275.362,185.275,275.362z"/>
	<path style="fill:#404B58;" d="M254.822,296.947L254.822,296.947c-11.058,0-20.022-8.964-20.022-20.022v-14.667
		c0-2.951,2.392-5.342,5.342-5.342h29.36c2.951,0,5.342,2.392,5.342,5.342v14.667C274.844,287.983,265.88,296.947,254.822,296.947z"
		/>
	<path style="fill:#404B58;" d="M324.369,275.362c-4.142,0-7.5-3.357-7.5-7.5V256c0-4.143,3.358-7.5,7.5-7.5
		c4.143,0,7.5,3.357,7.5,7.5v11.862C331.869,272.005,328.512,275.362,324.369,275.362z"/>
</g>
<path style="opacity:0.1;enable-background:new    ;" d="M478.772,193.248h-34.244c15.336,0,27.769,12.432,27.769,27.768v65.768
	c0,32.088-22.065,59.963-53.296,67.33l-60.452,14.26c-3.524,0.831-7.055,1.623-10.589,2.394c16.169-2.474,32.266-5.58,48.248-9.35
	l58.052-13.694c29.99-7.074,51.179-33.843,51.179-64.656v-63.156C505.438,205.186,493.499,193.248,478.772,193.248z"/>
<path style="fill:#FBE096;" d="M300.587,336.084h-91.529c-9.111,0-16.497,7.386-16.497,16.497v43.985
	c0,9.111,7.386,16.497,16.497,16.497h91.529c9.111,0,16.497-7.386,16.497-16.497v-43.985
	C317.083,343.47,309.697,336.084,300.587,336.084z"/>
<path style="fill:#404B58;" d="M278.147,382.073h-46.651c-4.143,0-7.5-3.357-7.5-7.5s3.357-7.5,7.5-7.5h46.651
	c4.142,0,7.5,3.357,7.5,7.5S282.29,382.073,278.147,382.073z"/>
<g>
</g>
<g>
</g>
<g>
</g>
<g>
</g>
<g>
</g>
<g>
</g>
<g>
</g>
<g>
</g>
<g>
</g>
<g>
</g>
<g>
</g>
<g>
</g>
<g>
</g>
<g>
</g>
<g>
</g>
</svg>
