<?xml version="1.0" encoding="iso-8859-1"?>
<!-- Generator: Adobe Illustrator 19.0.0, SVG Export Plug-In . SVG Version: 6.00 Build 0)  -->
<svg version="1.1" id="Capa_1" xmlns="http://www.w3.org/2000/svg" xmlns:xlink="http://www.w3.org/1999/xlink" x="0px" y="0px"
	 viewBox="0 0 512.001 512.001" style="enable-background:new 0 0 512.001 512.001;" xml:space="preserve">
<path style="fill:#80CBDE;" d="M482.844,446.783H29.156C13.053,446.783,0,433.729,0,417.628V94.373
	c0-16.102,13.053-29.156,29.156-29.156h453.689c16.102,0,29.156,13.053,29.156,29.156v323.254
	C512,433.729,498.947,446.783,482.844,446.783z"/>
<circle style="opacity:0.1;enable-background:new    ;" cx="201.77" cy="273.54" r="151.28"/>
<circle style="fill:#4A5058;" cx="184.23" cy="256" r="151.28"/>
<g style="opacity:0.2;">
	<path d="M152.619,157.945c-3.23,0-6.212-2.102-7.184-5.356c-1.184-3.969,1.072-8.147,5.041-9.332
		c16.942-5.059,35.143-6.238,52.633-3.407c4.089,0.661,6.868,4.512,6.206,8.601c-0.661,4.088-4.511,6.875-8.601,6.206
		c-15.272-2.468-31.159-1.44-45.947,2.974C154.052,157.844,153.329,157.945,152.619,157.945z"/>
	<path d="M292.738,244.44c-3.576,0-6.742-2.566-7.379-6.21c-3.645-20.847-13.51-39.806-28.531-54.826
		c-4.371-4.372-9.143-8.361-14.181-11.856c-3.404-2.36-4.249-7.033-1.888-10.437c2.36-3.404,7.032-4.248,10.437-1.888
		c5.773,4.004,11.235,8.57,16.239,13.573c17.214,17.215,28.522,38.948,32.699,62.852c0.714,4.08-2.016,7.966-6.097,8.679
		C293.602,244.403,293.167,244.44,292.738,244.44z"/>
	<path d="M244.856,355.518c-2.436,0-4.823-1.185-6.266-3.368c-2.282-3.457-1.33-8.109,2.126-10.392
		c5.762-3.804,11.183-8.232,16.111-13.162c11.475-11.474,19.851-25.045,24.897-40.337c1.298-3.934,5.539-6.07,9.472-4.772
		c3.934,1.298,6.07,5.538,4.773,9.472c-5.786,17.539-15.387,33.098-28.533,46.245c-5.642,5.642-11.85,10.713-18.453,15.072
		C247.71,355.115,246.275,355.518,244.856,355.518z"/>
</g>
<circle style="fill:#DFE3E5;" cx="184.23" cy="256" r="41.41"/>
<path style="opacity:0.1;enable-background:new    ;" d="M455.646,164.392c-7.917,0-14.337,6.419-14.337,14.336v108.105
	c0,5.142-2.001,9.975-5.637,13.611l-26.878,26.878l-0.694-0.694c-5.139-5.139-13.472-5.139-18.611,0l-28.163,28.163
	c-5.139,5.139-5.139,13.472,0,18.611l21.662,21.662c5.139,5.139,13.472,5.139,18.611,0l28.163-28.163
	c5.139-5.14,5.139-13.472,0-18.611l-0.694-0.694l26.878-26.878c9.051-9.051,14.035-21.085,14.035-33.885V178.729
	C469.983,170.811,463.564,164.392,455.646,164.392z"/>
<path style="fill:#FFFFFF;" d="M393.244,351.78c-3.669,0-7.338-1.4-10.137-4.199c-5.599-5.599-5.599-14.676,0-20.275l39.714-39.714
	c3.636-3.636,5.637-8.468,5.637-13.61V165.876c0-7.917,6.419-14.336,14.336-14.336s14.336,6.419,14.336,14.336v108.105
	c0,12.801-4.984,24.834-14.035,33.885l-39.714,39.714C400.582,350.379,396.913,351.78,393.244,351.78z"/>
<path style="fill:#FFE584;" d="M370.136,382.214l-21.662-21.662c-5.139-5.139-5.139-13.472,0-18.611l28.163-28.163
	c5.139-5.139,13.472-5.139,18.611,0l21.662,21.662c5.139,5.139,5.139,13.472,0,18.611l-28.163,28.163
	C383.608,387.352,375.276,387.352,370.136,382.214z"/>
<g>
	<circle style="fill:#4A5058;" cx="39.724" cy="103.94" r="15.277"/>
	<circle style="fill:#4A5058;" cx="472.28" cy="103.94" r="15.277"/>
	<circle style="fill:#4A5058;" cx="39.724" cy="408.06" r="15.277"/>
	<circle style="fill:#4A5058;" cx="472.28" cy="408.06" r="15.277"/>
	<path style="fill:#4A5058;" d="M396.757,124.831h-76.188c-4.143,0-7.5-3.357-7.5-7.5c0-4.143,3.357-7.5,7.5-7.5h76.188
		c4.143,0,7.5,3.357,7.5,7.5C404.257,121.474,400.899,124.831,396.757,124.831z"/>
	<path style="fill:#4A5058;" d="M396.757,155.409h-44.281c-4.143,0-7.5-3.357-7.5-7.5s3.357-7.5,7.5-7.5h44.281
		c4.143,0,7.5,3.357,7.5,7.5S400.899,155.409,396.757,155.409z"/>
	<path style="fill:#4A5058;" d="M396.757,185.987h-44.281c-4.143,0-7.5-3.357-7.5-7.5s3.357-7.5,7.5-7.5h44.281
		c4.143,0,7.5,3.357,7.5,7.5S400.899,185.987,396.757,185.987z"/>
</g>
<path style="opacity:0.1;enable-background:new    ;" d="M482.844,65.217h-40.362c16.102,0,29.156,13.053,29.156,29.156v323.254
	c0,16.102-13.053,29.155-29.156,29.155h40.362c16.102,0,29.156-13.053,29.156-29.155V94.373
	C512,78.271,498.947,65.217,482.844,65.217z"/>
<path style="fill:#E8618C;" d="M362.556,327.858l-14.081,14.082c-5.139,5.139-5.139,13.472,0,18.611l21.662,21.662
	c5.139,5.139,13.472,5.139,18.611,0l14.082-14.082L362.556,327.858z"/>
<g>
</g>
<g>
</g>
<g>
</g>
<g>
</g>
<g>
</g>
<g>
</g>
<g>
</g>
<g>
</g>
<g>
</g>
<g>
</g>
<g>
</g>
<g>
</g>
<g>
</g>
<g>
</g>
<g>
</g>
</svg>
