<?xml version="1.0" encoding="iso-8859-1"?>
<!-- Generator: Adobe Illustrator 19.0.0, SVG Export Plug-In . SVG Version: 6.00 Build 0)  -->
<svg version="1.1" id="Capa_1" xmlns="http://www.w3.org/2000/svg" xmlns:xlink="http://www.w3.org/1999/xlink" x="0px" y="0px"
	 viewBox="0 0 512 512" style="enable-background:new 0 0 512 512;" xml:space="preserve">
<path style="fill:#E8E8E8;" d="M479.679,450.903H32.321C14.47,450.903,0,436.433,0,418.582v-287.55h512v287.551
	C512,436.433,497.53,450.903,479.679,450.903z"/>
<path style="fill:#90DCA3;" d="M436.962,294.595H265.807c-14.553,0-26.351-11.798-26.351-26.351V197.15
	c0-14.553,11.798-26.351,26.351-26.351h171.155c14.553,0,26.351,11.798,26.351,26.351v71.094
	C463.313,282.797,451.516,294.595,436.962,294.595z"/>
<path style="fill:#404B58;" d="M479.679,61.097H32.321C14.47,61.097,0,75.567,0,93.418v37.614h512V93.418
	C512,75.567,497.53,61.097,479.679,61.097z"/>
<circle style="fill:#ED718B;" cx="69.05" cy="96.06" r="13.683"/>
<circle style="fill:#FBE096;" cx="121.34" cy="96.06" r="13.683"/>
<circle style="fill:#90DCA3;" cx="173.64" cy="96.06" r="13.683"/>
<g>
	<path style="fill:#404B58;" d="M145.464,302.27H50.551c-4.142,0-7.5-3.358-7.5-7.5s3.358-7.5,7.5-7.5h94.913
		c4.142,0,7.5,3.358,7.5,7.5S149.606,302.27,145.464,302.27z"/>
	<path style="fill:#404B58;" d="M145.464,334.086H50.551c-4.142,0-7.5-3.358-7.5-7.5s3.358-7.5,7.5-7.5h94.913
		c4.142,0,7.5,3.358,7.5,7.5S149.606,334.086,145.464,334.086z"/>
	<path style="fill:#404B58;" d="M98.007,365.903H50.551c-4.142,0-7.5-3.358-7.5-7.5s3.358-7.5,7.5-7.5h47.456
		c4.142,0,7.5,3.358,7.5,7.5S102.149,365.903,98.007,365.903z"/>
	<path style="fill:#404B58;" d="M282.899,240.969c-4.143,0-7.5-3.358-7.5-7.5v-11.369c0-4.142,3.357-7.5,7.5-7.5s7.5,3.358,7.5,7.5
		v11.369C290.399,237.611,287.042,240.969,282.899,240.969z"/>
	<path style="fill:#404B58;" d="M419.871,240.969c-4.143,0-7.5-3.358-7.5-7.5v-11.369c0-4.142,3.357-7.5,7.5-7.5s7.5,3.358,7.5,7.5
		v11.369C427.371,237.611,424.014,240.969,419.871,240.969z"/>
	<path style="fill:#404B58;" d="M351.385,249.699c-9.088,0-17.73-3.936-23.71-10.798c-2.722-3.123-2.396-7.86,0.728-10.582
		c3.122-2.721,7.86-2.396,10.581,0.727c3.131,3.592,7.65,5.653,12.401,5.653s9.271-2.061,12.401-5.653
		c2.721-3.124,7.458-3.448,10.581-0.727c3.123,2.721,3.449,7.458,0.728,10.582C369.115,245.763,360.473,249.699,351.385,249.699z"/>
</g>
<path style="fill:#FFFFFF;" d="M181.281,238.086H61.406c-5.995,0-10.855-4.86-10.855-10.855v-26.392
	c0-5.995,4.86-10.855,10.855-10.855H181.28c5.995,0,10.855,4.86,10.855,10.855v26.392
	C192.135,233.225,187.276,238.086,181.281,238.086z"/>
<path style="fill:#ED718B;" d="M318.033,403.803h-66.287c-6.787,0-12.289-5.502-12.289-12.289v-20.822
	c0-6.787,5.502-12.289,12.289-12.289h66.287c6.787,0,12.289,5.502,12.289,12.289v20.822
	C330.322,398.301,324.82,403.803,318.033,403.803z"/>
<path style="fill:#79C6E4;" d="M451.024,403.803h-66.287c-6.787,0-12.289-5.502-12.289-12.289v-20.822
	c0-6.787,5.502-12.289,12.289-12.289h66.287c6.787,0,12.289,5.502,12.289,12.289v20.822
	C463.313,398.301,457.811,403.803,451.024,403.803z"/>
<path style="fill:#404B58;" d="M443.097,334.086H259.673c-4.142,0-7.5-3.358-7.5-7.5s3.358-7.5,7.5-7.5h183.424
	c4.143,0,7.5,3.358,7.5,7.5S447.239,334.086,443.097,334.086z"/>
<path style="opacity:0.1;enable-background:new    ;" d="M479.679,61.097h-34.048c17.85,0,32.321,14.47,32.321,32.321v37.614H0
	v17.815h477.952v269.736c0,17.85-14.47,32.321-32.321,32.321h34.048c17.85,0,32.321-14.471,32.321-32.321V93.418
	C512,75.567,497.53,61.097,479.679,61.097z"/>
<g>
</g>
<g>
</g>
<g>
</g>
<g>
</g>
<g>
</g>
<g>
</g>
<g>
</g>
<g>
</g>
<g>
</g>
<g>
</g>
<g>
</g>
<g>
</g>
<g>
</g>
<g>
</g>
<g>
</g>
</svg>
